<svg id="Layer_1" enable-background="new 0 0 509.998 509.998" height="512" viewBox="0 0 509.998 509.998" width="512" xmlns="http://www.w3.org/2000/svg"><g><path d="m326.998 329.165h-16.365c17.417-15.413 28.427-37.909 28.427-62.939 0-46.352-37.71-84.061-84.062-84.061-46.351 0-84.06 37.709-84.06 84.061 0 25.031 11.01 47.527 28.426 62.939h-16.366c-34.737 0-62.999 28.453-62.999 63.427v86.741c0 8.284 6.716 15 15 15s15-6.716 15-15v-86.741c0-18.432 14.804-33.427 32.999-33.427h53.026l-25.439 65.023c-1.92 4.905-1.125 10.459 2.094 14.629l30.444 39.45c2.84 3.681 7.227 5.836 11.875 5.836s9.035-2.155 11.875-5.836l30.445-39.45c3.219-4.17 4.014-9.724 2.094-14.629l-25.439-65.023h53.025c18.196 0 33 14.995 33 33.427v86.735c0 8.284 6.716 15 15 15s15-6.716 15-15v-86.735c0-34.974-28.262-63.427-63-63.427zm-72-117c29.81 0 54.062 24.251 54.062 54.061s-24.252 54.061-54.062 54.061c-29.809 0-54.06-24.251-54.06-54.061s24.251-54.061 54.06-54.061zm0 232.387-13.382-17.341 13.382-34.206 13.383 34.206z"/><path d="m435.311 90.353c-48.162-48.163-112.198-74.688-180.312-74.688s-132.149 26.524-180.311 74.688c-48.164 48.163-74.688 112.199-74.688 180.312 0 6.123.229 12.404.683 18.67.567 7.844 7.097 13.918 14.961 13.918h103.093c4.31 0 8.411-1.854 11.259-5.089s4.167-7.538 3.62-11.813c-.66-5.164-.995-10.441-.995-15.686 0-67.48 54.898-122.38 122.379-122.38s122.379 54.899 122.379 122.38c0 5.244-.335 10.521-.995 15.686-.547 4.275.772 8.578 3.62 11.813s6.949 5.089 11.259 5.089h103.093c7.864 0 14.394-6.074 14.961-13.918.453-6.266.683-12.547.683-18.67-.002-68.113-26.526-132.149-74.689-180.312zm-332.691 180.312c0 .862.008 1.725.021 2.588h-72.625c-.011-.866-.016-1.729-.016-2.588 0-56.265 20.76-107.771 55.022-147.264l51.525 51.525c-21.203 26.183-33.927 59.501-33.927 95.739zm54.99-117.102-51.464-51.464c36.188-31.993 82.709-52.538 133.854-55.921v72.847c-31.153 3.057-59.579 15.534-82.39 34.538zm112.389-34.539v-72.847c51.144 3.384 97.666 23.928 133.853 55.921l-51.464 51.465c-22.811-19.004-51.237-31.481-82.389-34.539zm209.983 154.229h-72.626c.014-.863.021-1.726.021-2.588 0-36.238-12.723-69.556-33.927-95.739l51.525-51.525c34.262 39.493 55.022 91 55.022 147.265.001.858-.004 1.721-.015 2.587z"/></g></svg>