<svg height="512pt" viewBox="0 -2 512 512" width="512pt" xmlns="http://www.w3.org/2000/svg"><path d="m504.394531 181.703125v270.972656c0 26.339844-21.359375 47.691407-47.699219 47.691407h-401.398437c-26.339844 0-47.691406-21.351563-47.691406-47.691407v-270.972656c0-6.914063 1.429687-13.496094 4.003906-19.457031 7.53125-17.429688 24.878906-29.636719 45.074219-29.636719h398.621094c27.109374 0 49.089843 21.980469 49.089843 49.09375zm0 0" fill="#fec970"/><g fill="#fba028"><path d="m149.847656 301.742188-142.242187-118.4375v-1.601563c0-27.113281 21.96875-49.09375 49.078125-49.09375h81.707031c-86.714844 0-78.472656 60.46875 11.457031 169.132813zm0 0"/><path d="m329.726562 245.148438h-188.007812c-28.765625 0-46.738281-31.132813-32.355469-56.046876l32.617188-56.492187h187.484375l32.617187 56.492187c14.386719 24.914063-3.589843 56.046876-32.355469 56.046876zm0 0"/><path d="m448.117188 230.167969-134.679688 112.132812c-33.277344 27.71875-81.597656 27.71875-114.882812 0l-134.671876-112.132812-3.308593-2.753907-48.964844-65.167968c-2.574219 5.960937-4.003906 12.542968-4.003906 19.457031v270.976563c0 26.335937 21.351562 47.691406 47.691406 47.691406h202.730469s-61.953125-7.195313-114.902344-27.46875c-43.191406-16.542969-79.242188-60.539063-79.242188-106.792969v-61.8125c0-16.648437 19.417969-25.746094 32.210938-15.09375l102.460938 85.316406c33.285156 27.71875 81.605468 27.71875 114.882812 0l134.679688-112.132812 56.28125-46.863281v-32.214844zm0 0"/></g><path d="m223.640625 26.285156-94 162.816406c-14.382813 24.910157 3.59375 56.046876 32.355469 56.046876h188.007812c28.761719 0 46.738282-31.136719 32.359375-56.046876l-94.003906-162.816406c-14.382813-24.910156-50.335937-24.910156-64.71875 0zm0 0" fill="#ffc217"/><path d="m504.394531 352.113281c4.199219 0 7.605469-3.40625 7.605469-7.605469v-162.804687c0-31.261719-25.433594-56.695313-56.695312-56.695313h-101.167969l-59.191407-102.523437c-8.128906-14.078125-22.6875-22.484375-38.945312-22.484375s-30.816406 8.40625-38.945312 22.484375l-23.910157 41.417969c-2.097656 3.636718-.855469 8.285156 2.78125 10.386718 3.636719 2.097657 8.289063.851563 10.390625-2.785156l23.910156-41.414062c5.378907-9.320313 15.015626-14.882813 25.773438-14.882813s20.394531 5.5625 25.773438 14.882813l94.003906 162.816406c5.378906 9.316406 5.378906 20.441406 0 29.761719-5.382813 9.316406-15.015625 14.878906-25.773438 14.878906h-188.007812c-10.757813 0-20.394532-5.5625-25.773438-14.878906-5.378906-9.320313-5.378906-20.445313 0-29.761719l55.363282-95.894531c2.101562-3.636719.855468-8.285157-2.78125-10.386719-3.636719-2.097656-8.289063-.851562-10.386719 2.785156l-20.554688 35.597656h-101.179687c-31.253906 0-56.683594 25.433594-56.683594 56.695313v270.972656c0 30.492188 24.804688 55.296875 55.296875 55.296875h401.398437c30.496094 0 55.304688-24.804687 55.304688-55.296875v-77.75c0-4.199219-3.40625-7.605469-7.605469-7.605469s-7.601562 3.40625-7.601562 7.605469v77.75c0 22.105469-17.988281 40.089844-40.097657 40.089844h-401.398437c-22.105469 0-40.089844-17.984375-40.089844-40.089844v-253.140625l178.480469 148.609375c18.058594 15.035157 40.183594 22.550781 62.3125 22.550781 22.125 0 44.253906-7.519531 62.300781-22.550781l178.492188-148.613281v144.976562c0 4.199219 3.402343 7.605469 7.601562 7.605469zm-195.824219-15.652343c-30.460937 25.371093-74.679687 25.371093-105.148437-.003907l-188.164063-156.671875c1.003907-21.988281 19.199219-39.570312 41.425782-39.570312h92.402344l-26.03125 45.085937c-8.128907 14.078125-8.128907 30.890625 0 44.96875 8.128906 14.078125 22.6875 22.484375 38.941406 22.484375h188.007812c16.257813 0 30.816406-8.40625 38.941406-22.484375 8.128907-14.078125 8.128907-30.890625 0-44.96875l-26.027343-45.085937h92.386719c22.234374 0 40.433593 17.582031 41.4375 39.570312zm0 0"/><path d="m341.710938 355.023438c-3.226563-2.6875-8.023438-2.25-10.710938.976562-2.683594 3.226562-2.246094 8.023438.980469 10.710938l121.246093 100.949218c1.421876 1.183594 3.148438 1.761719 4.863282 1.761719 2.179687 0 4.34375-.933594 5.847656-2.742187 2.6875-3.226563 2.25-8.019532-.980469-10.707032zm0 0"/><path d="m170.289062 355.023438-121.246093 100.949218c-3.230469 2.683594-3.667969 7.480469-.980469 10.707032 1.503906 1.804687 3.667969 2.738281 5.847656 2.738281 1.714844 0 3.441406-.574219 4.863282-1.757813l121.246093-100.953125c3.226563-2.6875 3.664063-7.480469.980469-10.707031-2.6875-3.226562-7.484375-3.664062-10.710938-.976562zm0 0"/><path d="m256.199219 211.183594c6.960937 0 12.839843-5.972656 12.839843-13.042969 0-7.300781-5.757812-13.242187-12.839843-13.242187-7.304688 0-13.246094 5.941406-13.246094 13.242187 0 7.070313 6.066406 13.042969 13.246094 13.042969zm0 0"/><path d="m255.996094 174.609375c3.859375 0 9.203125-2.777344 9.203125-7.992187 0-15.742188.617187-33.253907 1.214843-50.1875.59375-16.894532 1.210938-34.363282 1.210938-50.046876 0-6.609374-4.78125-11.222656-11.628906-11.222656-6.957032 0-11.628906 4.507813-11.628906 11.222656 0 15.683594.617187 33.152344 1.210937 50.046876.597656 16.933593 1.214844 34.445312 1.214844 50.1875 0 4.628906 3.871093 7.992187 9.203125 7.992187zm0 0"/></svg>