<svg height="512pt" viewBox="0 -2 512 512" width="512pt" xmlns="http://www.w3.org/2000/svg"><path d="m504.394531 182.070312v270.976563c0 26.339844-21.359375 47.691406-47.699219 47.691406h-401.398437c-26.339844 0-47.691406-21.351562-47.691406-47.691406v-270.976563c0-6.914062 1.429687-13.492187 4.003906-19.453124 7.53125-17.429688 24.878906-29.636719 45.074219-29.636719h398.621094c27.109374 0 49.089843 21.980469 49.089843 49.089843zm0 0" fill="#fec970"/><g fill="#fba028"><path d="m346.355469 132.980469c-1.652344 66.082031-55.742188 119.148437-122.222657 119.148437-66.476562 0-120.566406-53.066406-122.21875-119.148437zm0 0"/><path d="m149.847656 302.113281-142.242187-118.4375v-1.601562c0-27.113281 21.96875-49.09375 49.078125-49.09375h81.707031c-86.714844 0-78.472656 60.46875 11.457031 169.132812zm0 0"/><path d="m448.117188 230.539062-134.679688 112.132813c-33.277344 27.71875-81.597656 27.71875-114.882812 0l-134.671876-112.132813-3.308593-2.753906-48.964844-65.167968c-2.574219 5.960937-4.003906 12.542968-4.003906 19.457031v270.976562c0 26.335938 21.351562 47.691407 47.691406 47.691407h202.730469s-61.953125-7.195313-114.902344-27.46875c-43.191406-16.542969-79.242188-60.539063-79.242188-106.792969v-61.8125c0-16.648438 19.417969-25.746094 32.210938-15.09375l102.460938 85.316406c33.285156 27.71875 81.605468 27.71875 114.882812 0l134.679688-112.132813 56.28125-46.863281v-32.214843zm0 0"/></g><path d="m378.261719 129.867188c0 67.523437-54.742188 122.265624-122.265625 122.265624-67.523438 0-122.261719-54.742187-122.261719-122.265624 0-67.523438 54.738281-122.261719 122.261719-122.261719 67.523437 0 122.265625 54.738281 122.265625 122.261719zm0 0" fill="#f71e1e"/><path d="m294.609375 60.761719-107.703125 107.703125c-6.398438-11.414063-10.046875-24.585938-10.046875-38.597656 0-43.707032 35.421875-79.140626 79.140625-79.140626 14.023438 0 27.191406 3.648438 38.609375 10.035157zm0 0" fill="#e4f5f7"/><path d="m335.140625 129.867188c0 43.707031-35.433594 79.140624-79.140625 79.140624-14.023438 0-27.191406-3.648437-38.609375-10.046874l107.703125-107.703126c6.398438 11.417969 10.046875 24.589844 10.046875 38.609376zm0 0" fill="#e4f5f7"/><path d="m455.304688 125.375h-69.523438c-.46875-13.800781-3.089844-27.308594-7.816406-40.210938-1.445313-3.941406-5.8125-5.96875-9.757813-4.523437-3.945312 1.449219-5.96875 5.816406-4.523437 9.757813 4.625 12.617187 6.972656 25.898437 6.972656 39.46875 0 63.222656-51.4375 114.660156-114.660156 114.660156s-114.660156-51.4375-114.660156-114.660156c0-63.222657 51.4375-114.660157 114.660156-114.660157 38.152344 0 73.695312 18.902344 95.082031 50.558594 2.351563 3.480469 7.074219 4.394531 10.558594 2.042969 3.480469-2.351563 4.394531-7.078125 2.042969-10.554688-24.21875-35.851562-64.476563-57.253906-107.683594-57.253906-70.105469 0-127.40625 55.839844-129.78125 125.378906h-69.53125c-31.253906 0-56.683594 25.429688-56.683594 56.695313v270.972656c0 30.496094 24.804688 55.304687 55.296875 55.304687h9.636719c4.199218 0 7.601562-3.402343 7.601562-7.601562s-3.402344-7.605469-7.601562-7.605469h-9.636719c-22.105469 0-40.089844-17.988281-40.089844-40.097656v-253.140625l178.480469 148.609375c18.058594 15.039063 40.183594 22.550781 62.3125 22.550781 22.125 0 44.253906-7.519531 62.300781-22.550781l178.492188-148.613281v253.144531c0 22.109375-17.988281 40.097656-40.097657 40.097656h-361.347656c-4.199218 0-7.601562 3.402344-7.601562 7.605469 0 4.199219 3.402344 7.601562 7.601562 7.601562h361.347656c30.496094 0 55.304688-24.808593 55.304688-55.304687v-270.976563c0-31.261718-25.433594-56.695312-56.695312-56.695312zm-146.738282 211.457031c-30.457031 25.371094-74.675781 25.371094-105.144531-.003906l-188.164063-156.671875c1.003907-21.988281 19.199219-39.570312 41.425782-39.570312h69.890625c5.46875 66.613281 61.421875 119.148437 129.421875 119.148437s123.957031-52.535156 129.421875-119.148437h69.886719c22.234374 0 40.433593 17.578124 41.4375 39.570312zm0 0"/><path d="m453.226562 468.03125c1.421876 1.183594 3.148438 1.757812 4.863282 1.757812 2.179687 0 4.34375-.933593 5.847656-2.738281 2.6875-3.226562 2.25-8.023437-.980469-10.710937l-121.246093-100.949219c-3.226563-2.683594-8.019532-2.25-10.710938.980469-2.683594 3.226562-2.25 8.019531.980469 10.707031zm0 0"/><path d="m180.996094 356.371094c-2.683594-3.226563-7.480469-3.664063-10.707032-.976563l-121.246093 100.949219c-3.230469 2.683594-3.667969 7.480469-.980469 10.707031 1.503906 1.808594 3.667969 2.738281 5.847656 2.738281 1.714844 0 3.441406-.574218 4.863282-1.757812l121.246093-100.949219c3.226563-2.6875 3.664063-7.484375.976563-10.710937zm0 0"/><path d="m302.140625 59.71875c-.328125-2.359375-1.742187-4.429688-3.820313-5.589844-12.867187-7.203125-27.5-11.007812-42.320312-11.007812-47.832031 0-86.746094 38.914062-86.746094 86.746094 0 14.820312 3.808594 29.453124 11.015625 42.316406 1.164063 2.078125 3.234375 3.488281 5.59375 3.816406.347657.046875.695313.070312 1.042969.070312 2 0 3.941406-.792968 5.375-2.226562l107.703125-107.703125c1.683594-1.683594 2.480469-4.0625 2.15625-6.421875zm-112.960937 95.71875c-3.105469-8.121094-4.71875-16.804688-4.71875-25.570312 0-39.445313 32.09375-71.539063 71.539062-71.539063 8.765625 0 17.453125 1.613281 25.574219 4.714844zm0 0"/><path d="m213.675781 205.597656c12.863281 7.207032 27.496094 11.015625 42.324219 11.015625 47.832031 0 86.746094-38.914062 86.746094-86.746093 0-14.828126-3.808594-29.464844-11.019532-42.324219-1.164062-2.078125-3.234374-3.488281-5.589843-3.816407-2.359375-.324218-4.738281.472657-6.417969 2.15625l-107.703125 107.703126c-1.683594 1.683593-2.480469 4.058593-2.15625 6.417968.328125 2.359375 1.738281 4.429688 3.816406 5.59375zm109.144531-101.308594c3.101563 8.121094 4.714844 16.804688 4.714844 25.578126 0 39.445312-32.089844 71.539062-71.535156 71.539062-8.773438 0-17.460938-1.613281-25.578125-4.71875zm0 0"/></svg>