<svg id="Layer_1" enable-background="new 0 0 512 512" height="512" viewBox="0 0 512 512" width="512" xmlns="http://www.w3.org/2000/svg"><path d="m497 11h-30.5c-3.978 0-7.793 1.581-10.606 4.394l-46.974 46.973c-41.634-34.265-94.915-54.867-152.92-54.867s-111.286 20.601-152.92 54.868l-46.974-46.974c-2.813-2.813-6.628-4.394-10.606-4.394h-30.5c-8.284 0-15 6.716-15 15s6.716 15 15 15h24.287l41.841 41.841c-40.963 43.219-66.128 101.553-66.128 165.659 0 65.757 26.483 125.436 69.329 168.963.388.501.798.99 1.258 1.449.46.46.949.871 1.45 1.258 12.105 11.916 25.455 22.57 39.844 31.736l-22.594 22.594h-24.287c-8.284 0-15 6.716-15 15s6.716 15 15 15h30.5c3.979 0 7.793-1.581 10.606-4.394l33.164-33.164c30.926 14.46 65.397 22.558 101.73 22.558 65.757 0 125.437-26.483 168.964-69.33.501-.387.989-.798 1.449-1.258.459-.459.87-.948 1.257-1.448 42.847-43.527 69.33-103.207 69.33-168.964 0-64.106-25.165-122.44-66.128-165.659l41.841-41.841h24.287c8.284 0 15-6.716 15-15s-6.716-15-15-15zm-81.639 375.647-20.564-20.564c23.894-28.161 39.39-63.654 42.581-102.583h29.083c-3.312 46.914-22.019 89.645-51.1 123.147zm-159.361-290.147c83.813 0 152 68.187 152 152 0 38.487-14.386 73.671-38.052 100.479-5.516-40.684-32.384-74.678-68.917-90.284 12.89-12.053 20.969-29.19 20.969-48.188 0-36.393-29.607-66-66-66s-66 29.608-66 66c0 18.997 8.079 36.135 20.969 48.188-36.533 15.607-63.401 49.6-68.917 90.284-23.666-26.808-38.052-61.993-38.052-100.479 0-83.813 68.187-152 152-152zm0 209.67 9.304 23.782-9.304 8.61-9.304-8.61zm0-59.664c-19.851 0-36-16.149-36-36s16.149-36 36-36 36 16.15 36 36-16.149 36-36 36zm-85 118c0-38.886 26.258-71.733 61.966-81.802l-17.936 45.844c-2.248 5.746-.748 12.283 3.781 16.474l27 24.987c2.875 2.66 6.531 3.991 10.188 3.991s7.313-1.331 10.188-3.991l27-24.987c4.529-4.191 6.029-10.728 3.781-16.474l-17.936-45.844c35.71 10.069 61.968 42.916 61.968 81.802v9.947c-24.278 16.437-53.538 26.046-85 26.046s-60.722-9.609-85-26.046zm266.378-131.006c-7.248-88.416-77.962-159.13-166.378-166.378v-29.082c104.415 7.37 188.09 91.045 195.461 195.46zm-196.378-195.46v29.083c-93.364 7.653-167 86.073-167 181.377 0 44.789 16.272 85.843 43.203 117.583l-20.564 20.564c-32.153-37.042-51.639-85.361-51.639-138.147 0-111.302 86.629-202.741 196-210.46zm-123.148 369.82 20.564-20.564c31.741 26.931 72.795 43.204 117.584 43.204s85.843-16.272 117.584-43.203l20.564 20.564c-37.042 32.153-85.362 51.639-138.148 51.639s-101.106-19.486-138.148-51.64z"/></svg>