<svg id="Capa_1" enable-background="new 0 0 512 512" height="512" viewBox="0 0 512 512" width="512" xmlns="http://www.w3.org/2000/svg"><g><path d="m43.764 250.432v178c0 12.958 10.542 23.5 23.5 23.5h139.16c12.958 0 23.5-10.542 23.5-23.5v-178c0-12.958-10.542-23.5-23.5-23.5h-139.16c-12.958 0-23.5 10.542-23.5 23.5zm144.73 186.5h-103.299v-52.325c0-12.881 10.479-23.36 23.36-23.36h56.578c12.881 0 23.36 10.479 23.36 23.36v52.325zm-89.476-128.255c0-20.717 16.854-37.57 37.57-37.57s37.57 16.854 37.57 37.57-16.854 37.569-37.57 37.569-37.57-16.853-37.57-37.569zm115.906-58.245v178c0 4.687-3.813 8.5-8.5 8.5h-2.931v-52.325c0-18.616-13.331-34.171-30.947-37.635 10.213-9.596 16.61-23.208 16.61-38.295 0-28.987-23.583-52.57-52.57-52.57s-52.57 23.583-52.57 52.57c0 15.13 6.433 28.778 16.697 38.378-17.404 3.629-30.52 19.086-30.52 37.552v52.325h-2.931c-4.687 0-8.5-3.813-8.5-8.5v-178c0-4.687 3.813-8.5 8.5-8.5h139.16c4.689 0 8.502 3.813 8.502 8.5z"/><path d="m284.558 293.705h176.178c4.142 0 7.5-3.357 7.5-7.5s-3.358-7.5-7.5-7.5h-176.178c-4.142 0-7.5 3.357-7.5 7.5s3.358 7.5 7.5 7.5z"/><path d="m284.558 350.398h176.178c4.142 0 7.5-3.357 7.5-7.5s-3.358-7.5-7.5-7.5h-176.178c-4.142 0-7.5 3.357-7.5 7.5s3.358 7.5 7.5 7.5z"/><path d="m284.558 407.091h176.178c4.142 0 7.5-3.357 7.5-7.5s-3.358-7.5-7.5-7.5h-176.178c-4.142 0-7.5 3.357-7.5 7.5s3.358 7.5 7.5 7.5z"/><path d="m504.5 394.769c-4.142 0-7.5 3.357-7.5 7.5v50.328c0 13.51-10.991 24.5-24.5 24.5h-433c-13.509 0-24.5-10.99-24.5-24.5v-280.933c0-13.51 10.991-24.5 24.5-24.5h46.882c4.142 0 7.5-3.357 7.5-7.5s-3.358-7.5-7.5-7.5h-46.882c-21.78 0-39.5 17.72-39.5 39.5v280.933c0 21.78 17.72 39.5 39.5 39.5h433c21.78 0 39.5-17.72 39.5-39.5v-50.328c0-4.143-3.358-7.5-7.5-7.5z"/><path d="m472.5 132.164h-174.242c2.87-25.737 5.18-54.462 6.065-89.683.311-12.38-9.633-22.578-22.038-22.578h-52.57c-12.384 0-22.349 10.177-22.038 22.578.75 29.86 2.785 59.913 6.054 89.683h-92.349c-4.142 0-7.5 3.357-7.5 7.5s3.358 7.5 7.5 7.5h94.105c.034.277.073.553.108.83.56 4.533 1.296 10.091 1.709 13.103h-13.921c-12.343 0-22.384 10.042-22.384 22.385s10.042 22.385 22.384 22.385h105.231c12.343 0 22.384-10.042 22.384-22.385s-10.042-22.385-22.384-22.385h-13.917c.598-4.507 1.103-8.183 1.807-13.933h175.996c13.509 0 24.5 10.99 24.5 24.5v195.604c0 4.143 3.358 7.5 7.5 7.5s7.5-3.357 7.5-7.5v-195.604c0-21.78-17.72-39.5-39.5-39.5zm-269.116 58.702c-4.072 0-7.384-3.313-7.384-7.385s3.312-7.385 7.384-7.385h15.976c.69 5.013-.226-1.644 2.031 14.77zm72.083 0h-38.933c-4.677-34.061-5.273-38.023-6.827-51.157-3.841-32.345-6.216-65.089-7.034-97.605-.099-3.956 3.092-7.201 7.042-7.201h52.57c3.957 0 7.142 3.252 7.042 7.201-1.572 62.61-7.515 102.556-13.86 148.762zm33.149-14.769c4.072 0 7.384 3.313 7.384 7.385s-3.313 7.385-7.384 7.385h-18.001c.665-4.797 2.026-14.61 2.048-14.77z"/></g></svg>