<svg id="Capa_1" data-name="Capa 1" xmlns="http://www.w3.org/2000/svg" xmlns:xlink="http://www.w3.org/1999/xlink" viewBox="0 0 718.75 249.8"><defs><style>.cls-1{fill:none;}.cls-100,.cls-101,.cls-102,.cls-103,.cls-104,.cls-105,.cls-106,.cls-107,.cls-108,.cls-109,.cls-110,.cls-111,.cls-112,.cls-113,.cls-114,.cls-115,.cls-116,.cls-117,.cls-118,.cls-119,.cls-12,.cls-120,.cls-121,.cls-122,.cls-123,.cls-124,.cls-125,.cls-126,.cls-127,.cls-128,.cls-129,.cls-13,.cls-130,.cls-131,.cls-132,.cls-133,.cls-134,.cls-135,.cls-136,.cls-137,.cls-138,.cls-139,.cls-14,.cls-140,.cls-141,.cls-142,.cls-143,.cls-144,.cls-145,.cls-146,.cls-147,.cls-148,.cls-149,.cls-15,.cls-150,.cls-151,.cls-152,.cls-153,.cls-154,.cls-155,.cls-156,.cls-157,.cls-158,.cls-159,.cls-16,.cls-160,.cls-161,.cls-162,.cls-163,.cls-164,.cls-165,.cls-166,.cls-167,.cls-168,.cls-169,.cls-17,.cls-170,.cls-171,.cls-172,.cls-173,.cls-174,.cls-175,.cls-176,.cls-177,.cls-178,.cls-179,.cls-18,.cls-180,.cls-181,.cls-182,.cls-183,.cls-184,.cls-185,.cls-186,.cls-187,.cls-188,.cls-189,.cls-19,.cls-190,.cls-191,.cls-192,.cls-193,.cls-194,.cls-195,.cls-196,.cls-197,.cls-198,.cls-199,.cls-2,.cls-20,.cls-200,.cls-201,.cls-202,.cls-203,.cls-204,.cls-205,.cls-206,.cls-207,.cls-208,.cls-209,.cls-21,.cls-210,.cls-211,.cls-212,.cls-213,.cls-214,.cls-215,.cls-216,.cls-217,.cls-218,.cls-219,.cls-22,.cls-220,.cls-221,.cls-23,.cls-24,.cls-25,.cls-26,.cls-27,.cls-28,.cls-29,.cls-3,.cls-30,.cls-31,.cls-32,.cls-33,.cls-34,.cls-35,.cls-36,.cls-37,.cls-38,.cls-39,.cls-4,.cls-40,.cls-41,.cls-42,.cls-43,.cls-44,.cls-45,.cls-46,.cls-47,.cls-48,.cls-49,.cls-5,.cls-50,.cls-51,.cls-52,.cls-53,.cls-54,.cls-55,.cls-56,.cls-57,.cls-58,.cls-59,.cls-6,.cls-60,.cls-61,.cls-62,.cls-63,.cls-64,.cls-65,.cls-66,.cls-67,.cls-68,.cls-69,.cls-7,.cls-70,.cls-71,.cls-72,.cls-73,.cls-74,.cls-75,.cls-76,.cls-77,.cls-78,.cls-79,.cls-8,.cls-80,.cls-81,.cls-82,.cls-83,.cls-84,.cls-85,.cls-86,.cls-87,.cls-88,.cls-89,.cls-90,.cls-91,.cls-92,.cls-93,.cls-94,.cls-95,.cls-96,.cls-97,.cls-98,.cls-99{fill-rule:evenodd;}.cls-2{fill:url(#Degradado_sin_nombre);}.cls-3{fill:url(#Degradado_sin_nombre_2);}.cls-4{fill:#00bfe1;}.cls-5{fill:#2d7abf;}.cls-10,.cls-6{fill:#060a13;}.cls-7{fill:url(#Degradado_sin_nombre_3);}.cls-8{fill:url(#Degradado_sin_nombre_4);}.cls-9{clip-path:url(#clip-path);}.cls-11,.cls-12{fill:#fff;}.cls-13{fill:#fbfdff;}.cls-14{fill:#f7f8fc;}.cls-15{fill:#f7f8f9;}.cls-16{fill:#f4f7f6;}.cls-17{fill:#f4f4f4;}.cls-18{fill:#f1f3f4;}.cls-19{fill:#f1f1f3;}.cls-20{fill:#efeeef;}.cls-21{fill:#eceded;}.cls-22{fill:#eaeaec;}.cls-23{fill:#eaeaea;}.cls-24{fill:#e5e8ea;}.cls-25{fill:#e5e6e9;}.cls-26{fill:#e5e4e8;}.cls-27{fill:#e2e3e4;}.cls-28{fill:#e0e2e4;}.cls-29{fill:#dde1e3;}.cls-30{fill:#dddee1;}.cls-31{fill:#dbddde;}.cls-32{fill:#d8dadc;}.cls-33{fill:#d8d8db;}.cls-34{fill:#d6d7db;}.cls-35{fill:#d3d6d9;}.cls-36{fill:#d4d4d7;}.cls-37{fill:#d1d4d6;}.cls-38{fill:#cfd1d5;}.cls-39{fill:#cfd1d4;}.cls-40{fill:#cdd0d2;}.cls-41{fill:#cdcdd0;}.cls-42{fill:#caccd0;}.cls-43{fill:#c8cbd0;}.cls-44{fill:#c8c9cb;}.cls-45{fill:#c6c8cb;}.cls-46{fill:#c1c5ca;}.cls-47{fill:#c1c3c9;}.cls-48{fill:#c1c3c8;}.cls-49{fill:#bfc2c6;}.cls-50{fill:#bfbfc4;}.cls-51{fill:#bdbec4;}.cls-52{fill:#bbbec2;}.cls-53{fill:#bbbcc1;}.cls-54{fill:#b9b9bf;}.cls-55{fill:#b6b9bf;}.cls-56{fill:#b6b9bd;}.cls-57{fill:#b2b6bc;}.cls-58{fill:#b2b6ba;}.cls-59{fill:#b2b4ba;}.cls-60{fill:#b0b3b8;}.cls-61{fill:#aeb1b7;}.cls-62{fill:#aeb1b5;}.cls-63{fill:#abafb5;}.cls-64{fill:#a9acb2;}.cls-65{fill:#a7aab1;}.cls-66{fill:#a7aab0;}.cls-67{fill:#a5a8af;}.cls-68{fill:#a3a5ae;}.cls-69{fill:#a1a5ac;}.cls-70{fill:#9fa3aa;}.cls-71{fill:#9fa3a8;}.cls-72{fill:#9da0a8;}.cls-73{fill:#9ba0a8;}.cls-74{fill:#9b9ea5;}.cls-75{fill:#999ea5;}.cls-76{fill:#979ba3;}.cls-77{fill:#979aa2;}.cls-78{fill:#93969e;}.cls-79{fill:#91959e;}.cls-80{fill:#8f939d;}.cls-81{fill:#8f939b;}.cls-82{fill:#8f929b;}.cls-83{fill:#8a8f98;}.cls-84{fill:#8a8e97;}.cls-85{fill:#868d95;}.cls-86{fill:#858a92;}.cls-87{fill:#858991;}.cls-88{fill:#838891;}.cls-89{fill:#80858f;}.cls-90{fill:#80858e;}.cls-91{fill:#7e838d;}.cls-92{fill:#7d828b;}.cls-93{fill:#7c818c;}.cls-94{fill:#7c8189;}.cls-95{fill:#7c818a;}.cls-96{fill:#797f89;}.cls-97{fill:#797e87;}.cls-98{fill:#787d86;}.cls-99{fill:#767b86;}.cls-100{fill:#747a85;}.cls-101{fill:#737984;}.cls-102{fill:#747983;}.cls-103{fill:#717681;}.cls-104{fill:#717780;}.cls-105{fill:#6f7681;}.cls-106{fill:#6e737e;}.cls-107{fill:#6e757f;}.cls-108{fill:#6b727d;}.cls-109{fill:#6c717c;}.cls-110{fill:#6a707c;}.cls-111{fill:#696e7a;}.cls-112{fill:#666d77;}.cls-113{fill:#686d77;}.cls-114{fill:#666c78;}.cls-115{fill:#646b76;}.cls-116{fill:#646975;}.cls-117{fill:#636874;}.cls-118{fill:#636873;}.cls-119{fill:#616774;}.cls-120{fill:#606772;}.cls-121{fill:#606673;}.cls-122{fill:#5e6470;}.cls-123{fill:#606470;}.cls-124{fill:#5b626e;}.cls-125{fill:#5b616e;}.cls-126{fill:#5b606d;}.cls-127{fill:#5a5f6b;}.cls-128{fill:#585e6b;}.cls-129{fill:#585f6c;}.cls-130{fill:#555d6a;}.cls-131{fill:#565c69;}.cls-132{fill:#555b67;}.cls-133{fill:#525a67;}.cls-134{fill:#525a66;}.cls-135{fill:#515965;}.cls-136{fill:#505664;}.cls-137{fill:#4f5563;}.cls-138{fill:#4f5562;}.cls-139{fill:#4c5362;}.cls-140{fill:#4b5360;}.cls-141{fill:#4c5260;}.cls-142{fill:#4a5160;}.cls-143{fill:#49505e;}.cls-144{fill:#484f5d;}.cls-145{fill:#474e5d;}.cls-146{fill:#444e5c;}.cls-147{fill:#434c5a;}.cls-148{fill:#434b5a;}.cls-149{fill:#424a59;}.cls-150{fill:#414958;}.cls-151{fill:#404857;}.cls-152{fill:#3f4856;}.cls-153{fill:#3d4756;}.cls-154{fill:#3f4555;}.cls-155{fill:#3d4654;}.cls-156{fill:#3b4555;}.cls-157{fill:#3b4353;}.cls-158{fill:#3a4251;}.cls-159{fill:#384252;}.cls-160{fill:#374151;}.cls-161{fill:#353f4f;}.cls-162{fill:#343e4d;}.cls-163{fill:#343c4c;}.cls-164{fill:#313b4b;}.cls-165{fill:#303a4b;}.cls-166{fill:#2f384a;}.cls-167{fill:#2e3748;}.cls-168{fill:#2d3748;}.cls-169{fill:#2b3648;}.cls-170{fill:#2a3647;}.cls-171{fill:#2b3446;}.cls-172{fill:#293344;}.cls-173{fill:#273245;}.cls-174{fill:#263042;}.cls-175{fill:#252f42;}.cls-176{fill:#232f42;}.cls-177{fill:#212d40;}.cls-178{fill:#222c3f;}.cls-179{fill:#202c3f;}.cls-180{fill:#1c2a3d;}.cls-181{fill:#1b293c;}.cls-182{fill:#1a273c;}.cls-183{fill:#19273b;}.cls-184{fill:#172539;}.cls-185{fill:#17243a;}.cls-186{fill:#162438;}.cls-187{fill:#152337;}.cls-188{fill:#102036;}.cls-189{fill:#0f1f35;}.cls-190{fill:#0e1f34;}.cls-191{fill:#0e1e34;}.cls-192{fill:#0e1d33;}.cls-193{fill:#0b1c30;}.cls-194{fill:#061a31;}.cls-195{fill:#05192f;}.cls-196{fill:#09192e;}.cls-197{fill:#06182b;}.cls-198{fill:#06172c;}.cls-199{fill:#09182a;}.cls-200{fill:#071628;}.cls-201{fill:#091726;}.cls-202{fill:#061423;}.cls-203{fill:#091423;}.cls-204{fill:#0a1321;}.cls-205{fill:#081220;}.cls-206{fill:#0a1320;}.cls-207{fill:#08121e;}.cls-208{fill:#09101c;}.cls-209{fill:#08111d;}.cls-210{fill:#08101b;}.cls-211{fill:#070e19;}.cls-212{fill:#060f19;}.cls-213{fill:#080f19;}.cls-214{fill:#070e17;}.cls-215{fill:#090e17;}.cls-216{fill:#070c16;}.cls-217{fill:#060d16;}.cls-218{fill:#050b14;}.cls-219{fill:#060c15;}.cls-220{fill:#040a13;}.cls-221{fill:url(#Degradado_sin_nombre_5);}</style><linearGradient id="Degradado_sin_nombre" x1="65.47" y1="-83.17" x2="146.1" y2="-95.11" gradientTransform="matrix(1, 0, 0, -1, -57.36, 81.39)" gradientUnits="userSpaceOnUse"><stop offset="0" stop-color="#2d7abf"/><stop offset="0.58" stop-color="#2d7abf"/><stop offset="1" stop-color="#060a13"/></linearGradient><linearGradient id="Degradado_sin_nombre_2" x1="68.76" y1="-127.74" x2="136.48" y2="-145.74" gradientTransform="matrix(1, 0, 0, -1, -57.36, 81.39)" gradientUnits="userSpaceOnUse"><stop offset="0" stop-color="#2d7abf"/><stop offset="0.48" stop-color="#2d7abf"/><stop offset="1" stop-color="#060a13"/></linearGradient><linearGradient id="Degradado_sin_nombre_3" x1="106.64" y1="3.25" x2="153.58" y2="-9.76" gradientTransform="matrix(1, 0, 0, -1, -57.36, 81.39)" gradientUnits="userSpaceOnUse"><stop offset="0" stop-color="#2d7abf"/><stop offset="0.62" stop-color="#2d7abf"/><stop offset="1" stop-color="#060a13"/></linearGradient><linearGradient id="Degradado_sin_nombre_4" x1="103.05" y1="-31.93" x2="155.92" y2="-46.84" gradientTransform="matrix(1, 0, 0, -1, -57.36, 81.39)" gradientUnits="userSpaceOnUse"><stop offset="0" stop-color="#2d7abf"/><stop offset="0.54" stop-color="#2d7abf"/><stop offset="1" stop-color="#060a13"/></linearGradient><clipPath id="clip-path" transform="translate(0.03 -0.01)"><path class="cls-1" d="M166.7,203.83,97.21,213.3c-6.51.84-7,2.64-7.39,6.78L89,231.63c-.3,3.63.62,5,7.57,4.46l67.87-5.36c5-.27,10.32-.31,10.35-6.86l-.19-15.25c0-5.24-.71-5.54-8-4.79Zm-2.14-23.93c5.27-.41,9.47-.86,9.38,3.15l.08,7.11c-.08,4.07-3.84,4.66-6.76,5l-61.42,8.28c-7.15.62-8.46-.23-8.18-4.83l.53-8.34c.2-3.3,1.35-5.4,6.11-5.77l60.26-4.64Zm5.71-15.76-44.12-.75c-3.55,0-4.18.62-4.49,4.18l-.35,5c-.29,2.33.17,4.18,3.51,4.21L168.57,174c2.17-.37,5.26,0,5.33-3.76v-3.73c-.06-2.75-1.56-2.4-3.58-2.39Zm-29-8.29.73-1.73c.93-2.32,1.79-2.2,5-2.16l24,1.81c1.88.28,3-.37,2.89,1.9v1.71c-.13,1.46-1.87,1.21-3.74,1.2l-26.78-.3c-2.94,0-3-.29-2.13-2.43Z"/></clipPath><linearGradient id="Degradado_sin_nombre_5" x1="122.34" y1="29.2" x2="158.86" y2="21.13" gradientTransform="matrix(1, 0, 0, -1, -57.36, 81.39)" gradientUnits="userSpaceOnUse"><stop offset="0" stop-color="#2d7abf"/><stop offset="0.6" stop-color="#2d7abf"/><stop offset="1" stop-color="#060a13"/></linearGradient></defs><title>logo</title><path class="cls-2" d="M26.54,141.77l29.37-2c11-.74,8.53-1.82,17,5.06l15.58,12.62c5.86,4.62,6.5,4.94,4.77,13.48L90,187.55c-2.92,14.94-1.47,13.43-14.3,13.77l-7.08.24a222.12,222.12,0,0,1-33.33-.94l-20.5-2.05c-17.47-1.58-17.18.7-11-18.46l8.7-27.39C16.42,140.6,13.85,142.64,26.54,141.77Z" transform="translate(0.03 -0.01)"/><path class="cls-3" d="M84.46,214.89l-1.65,9.72c-1.61,9.5.18,7.86-9.35,9l-15.28,1.78c-13.3,1.58-14.5,2.31-27.33-2.64l-20.57-8c-5.12-2-6.4-2.45-4.58-7.87l2.74-7.49c2.11-5.55,3.66-5.34,11.78-4.7,23.15,2.34,34.07,3.82,57.58,3.75C84.23,208.39,85,209.81,84.46,214.89Z" transform="translate(0.03 -0.01)"/><path class="cls-4" d="M210.26,40.87l1.1,9.71c1,9.08.61,8.3-6.92,9.25l-22.08,2.11c-8.22.81-8.64,1.29-8.89-3.76L173,48.45c-.22-3,.71-6.57,6.61-7.34l23.33-5.32C207,35.14,210.22,37.2,210.26,40.87Z" transform="translate(0.03 -0.01)"/><path class="cls-4" d="M212.84,65.77l-35.27,2.28c-3.38.21-4.25,3-4,6.52l.87,17.11c.5,9.84.57,11.21,11.89,10.32l29.25-2.17c7.3-.23,7.86-.57,7.86-10.39V74.5C223.47,65.74,222.89,65.05,212.84,65.77Z" transform="translate(0.03 -0.01)"/><path class="cls-4" d="M213.24,115.68l.91,20.46c.47,9.33.77,10.11-8.67,9.59l-18.11-1c-10.9-.77-10.84.26-11.47-12l-.81-16c-.38-7.58-.72-8.06,8.45-8.64l17-1.21C211.72,106,212.79,105.86,213.24,115.68Z" transform="translate(0.03 -0.01)"/><path class="cls-4" d="M181.19,213.19l-3.55-53.08c-.34-11.5-2.34-10.88,11.16-9.42l33.7,2.88c11.09-.06,11.39,9,12.32,16.91l2.08,36.18c1,14.36.4,17.57-17,22.55l-21.36,6.53C182.83,238.08,182.26,234.23,181.19,213.19Z" transform="translate(0.03 -0.01)"/><path class="cls-5" d="M178.64,1.58q-47.53,10.81-95,21.81c-2.88.66-3.47.66-3.94,1.59-5.57,11-6,8.59,2.32,8.24L187,22c7-1.21,6.72.11,4.45-8.43l-3-8.36C186.53-1.38,186.39-.61,178.64,1.58Z" transform="translate(0.03 -0.01)"/><path class="cls-6" d="M189.64,31.8c2.29-5.76,1.58-5-8.07-4.2l-77.93,6.3c-6.31.48-7.28.08-4.33,6.83l1.46,3.32c1.84,4,2.15,3.63,7.53,3.46l55.57-2.27c5.39-.39,4.62.41,5.52-3,.65-2.45,3-4.43,7.6-5l5.52-.88C187.46,35.18,187.87,36.29,189.64,31.8Z" transform="translate(0.03 -0.01)"/><path class="cls-7" d="M53.1,72.39,79.23,68.9c6-1,6-.79,8.84,3.92l9.57,15.26c2.65,4.18,2.71,2.91.91,7.46l-2.25,5.7c-1.83,4.56-2.13,4.63-5.39.5L84,93.28c-3.28-4.24-3.6-3.55-9.55-2.64L47.49,94.75c-7.31,1-7.49,1.92-5.13-5.51L46,77.81C47.81,72.79,48.15,73.16,53.1,72.39Z" transform="translate(0.03 -0.01)"/><path class="cls-8" d="M43,106l-7.43,23c-2.82,8.75-3.84,7.9,5.18,7.33l16.79-1.42c10.38-.74,8.54-2.2,16.34,4.45L88.29,151c6.85,5.76,8.71,6,10.16-1.74l4.19-20.91c1-4.92,1.64-3.91-1.47-7.71L85,100.88c-6.8-8.3-4.44-6.8-15.28-5.16L52.77,98.21C44.1,99.47,45.64,97.81,43,106Z" transform="translate(0.03 -0.01)"/><path class="cls-6" d="M104.32,98.05l2.56,4a7.22,7.22,0,0,1,.68,5.6l-1.87,8.43c-.39,1.64-1.17,2.38-2,1.65l-1.13-1.34-4-4.84c-2.26-2.84-2.47-3.23-1-6.7l2.77-7C102.11,93.39,101.44,93.94,104.32,98.05Z" transform="translate(0.03 -0.01)"/><path class="cls-6" d="M107.72,70.23,111,76.91c1,2.19.43,4-.24,7.52L108.91,93c-1.27,6-.42,6.31-3.83,1.29l-3-4.38c-2.2-3.23-1.38-3-.37-6.92L105,70.39C106.15,65.77,105.64,65.91,107.72,70.23Z" transform="translate(0.03 -0.01)"/><g class="cls-9"><rect class="cls-10" x="88.77" y="151.78" width="86.09" height="84.79"/><rect class="cls-11" x="172.9" y="153.37" width="0.5" height="0.49"/><path class="cls-12" d="M172.94,153.46v.33h.34v-.33Zm-.25-.24h.84V154h-.84Z" transform="translate(0.03 -0.01)"/><path class="cls-12" d="M172.78,153.3V154h.67v-.66Zm-.25-.25h1.17v1.15h-1.17Z" transform="translate(0.03 -0.01)"/><path class="cls-12" d="M172.64,153.13v1h1v-1Zm-.25-.24h1.51v1.5h-1.51Z" transform="translate(0.03 -0.01)"/><path class="cls-13" d="M172.44,153v1.32h1.34V153Zm-.25-.25H174v1.81h-1.84Z" transform="translate(0.03 -0.01)"/><path class="cls-14" d="M172.27,152.81v1.64H174v-1.64Zm-.25-.25h2.18v2.14H172Z" transform="translate(0.03 -0.01)"/><path class="cls-15" d="M172.11,152.64v2h2v-2Zm-.25-.25h2.51v2.47h-2.51Z" transform="translate(0.03 -0.01)"/><path class="cls-16" d="M171.94,152.48v2.3h2.35v-2.3Zm-.25-.25h2.85V155h-2.85Z" transform="translate(0.03 -0.01)"/><path class="cls-17" d="M171.77,152.31v2.63h2.68v-2.63Zm-.25-.25h3.19v3.13h-3.19Z" transform="translate(0.03 -0.01)"/><path class="cls-17" d="M171.64,152.15v3h3v-3Zm-.25-.25h3.52v3.49h-3.52Z" transform="translate(0.03 -0.01)"/><path class="cls-18" d="M171.44,152v3.29h3.35V152Zm-.26-.24H175v3.78h-3.86Z" transform="translate(0.03 -0.01)"/><path class="cls-19" d="M171.27,151.82v3.62H175v-3.62Zm-.25-.25h4.19v4.11H171Z" transform="translate(0.03 -0.01)"/><path class="cls-20" d="M171.1,151.65v3.95h4v-3.95Zm-.25-.24h4.53v4.44h-4.53Z" transform="translate(0.03 -0.01)"/><path class="cls-20" d="M170.93,151.49v4.28h4.36v-4.28Zm-.25-.25h4.86V156h-4.9Z" transform="translate(0.03 -0.01)"/><path class="cls-21" d="M170.77,151.32v4.61h4.69v-4.61Zm-.26-.24h5.2v5.1h-5.2Z" transform="translate(0.03 -0.01)"/><path class="cls-22" d="M170.64,151.16v4.94h5v-4.94Zm-.25-.25h5.53v5.48h-5.53Z" transform="translate(0.03 -0.01)"/><path class="cls-22" d="M170.43,151v5.27h5.36V151Zm-.25-.24h5.87v5.76h-5.87Z" transform="translate(0.03 -0.01)"/><path class="cls-23" d="M170.26,150.83v5.56H176v-5.6Zm-.25-.25h6.2v6.09H170Z" transform="translate(0.03 -0.01)"/><path class="cls-24" d="M170.09,150.67v5.92h6v-5.92Zm-.25-.25h6.54v6.42h-6.54Z" transform="translate(0.03 -0.01)"/><path class="cls-25" d="M169.93,150.5v6.25h6.37V150.5Zm-.25-.25h6.87V157h-6.91Z" transform="translate(0.03 -0.01)"/><path class="cls-26" d="M169.76,150.39V157h6.71v-6.58Zm-.25-.25h7.21v7.08h-7.21Z" transform="translate(0.03 -0.01)"/><path class="cls-27" d="M169.64,150.17v6.91h7v-6.91Zm-.25-.24h7.54v7.4h-7.59Z" transform="translate(0.03 -0.01)"/><path class="cls-28" d="M169.42,150v7.24h7.38V150Zm-.25-.25h7.88v7.73h-7.88Z" transform="translate(0.03 -0.01)"/><path class="cls-28" d="M169.26,149.84v7.55H177v-7.57Zm-.25-.24h8.21v8.06H169Z" transform="translate(0.03 -0.01)"/><path class="cls-29" d="M169.09,149.68v7.9h8v-7.9Zm-.25-.25h8.55v8.39h-8.55Z" transform="translate(0.03 -0.01)"/><path class="cls-30" d="M168.92,149.51v8.23h8.38v-8.23Zm-.25-.24h8.89V158h-8.92Z" transform="translate(0.03 -0.01)"/><path class="cls-31" d="M168.75,149.39V158h8.72v-8.56Zm-.25-.25h9.22v9.05H168.5Z" transform="translate(0.03 -0.01)"/><path class="cls-31" d="M168.64,149.19v8.88h9v-8.88Zm-.26-.25h9.56v9.38h-9.56Z" transform="translate(0.03 -0.01)"/><path class="cls-32" d="M168.42,149v9.22h9.39V149Zm-.25-.25h9.89v9.71h-9.89Z" transform="translate(0.03 -0.01)"/><path class="cls-33" d="M168.25,148.86v9.53H178v-9.54Zm-.25-.25h10.23v10H168Z" transform="translate(0.03 -0.01)"/><path class="cls-34" d="M168.08,148.69v9.87h10.06v-9.87Zm-.25-.25h10.56v10.37H167.83Z" transform="translate(0.03 -0.01)"/><path class="cls-35" d="M167.92,148.53v10.2h10.39v-10.2Zm-.26-.25h10.9V159H167.64Z" transform="translate(0.03 -0.01)"/><path class="cls-36" d="M167.75,148.39v10.5h10.73v-10.5Zm-.25-.24h11.23v11H167.5Z" transform="translate(0.03 -0.01)"/><path class="cls-37" d="M167.58,148.2v10.86h11.06V148.2Zm-.25-.25H178.9V159.3H167.33Z" transform="translate(0.03 -0.01)"/><path class="cls-38" d="M167.41,148v11.19h11.4V148Zm-.25-.24h11.9v11.68h-11.9Z" transform="translate(0.03 -0.01)"/><path class="cls-39" d="M167.24,147.87v11.52H179V147.87Zm-.25-.25h12.24v12H167Z" transform="translate(0.03 -0.01)"/><path class="cls-40" d="M167.08,147.7v11.85h12.07V147.7Zm-.25-.24H179.4V159.8H166.83Z" transform="translate(0.03 -0.01)"/><path class="cls-41" d="M166.91,147.54v12.18h12.41V147.54Zm-.25-.25h12.91V160H166.64Z" transform="translate(0.03 -0.01)"/><path class="cls-42" d="M166.74,147.39v12.5h12.74v-12.5Zm-.25-.25h13.24v13H166.49Z" transform="translate(0.03 -0.01)"/><path class="cls-43" d="M166.57,147.21v12.84h13.07V147.21Zm-.25-.25H179.9v13.33H166.32Z" transform="translate(0.03 -0.01)"/><path class="cls-44" d="M166.41,147.05v13.16h13.41V147.05Zm-.25-.25h13.91v13.66H166.16Z" transform="translate(0.03 -0.01)"/><path class="cls-45" d="M166.24,146.88v13.51H180V146.88Zm-.25-.25h14.25v14H166Z" transform="translate(0.03 -0.01)"/><path class="cls-45" d="M166.07,146.72v13.82h14.08V146.72Zm-.25-.25h14.59v14.32H165.82Z" transform="translate(0.03 -0.01)"/><path class="cls-46" d="M165.9,146.55V160.7h14.42V146.55Zm-.25-.24h14.92V161H165.64Z" transform="translate(0.03 -0.01)"/><path class="cls-47" d="M165.74,146.39v14.48h14.75V146.39Zm-.26-.25h15.26v15H165.48Z" transform="translate(0.03 -0.01)"/><path class="cls-48" d="M165.57,146.22V161h15.07V146.22Zm-.25-.24h15.59v15.3H165.32Z" transform="translate(0.03 -0.01)"/><path class="cls-49" d="M165.4,146.06V161.2h15.42V146.06Zm-.25-.25h15.93v15.63H165.15Z" transform="translate(0.03 -0.01)"/><path class="cls-50" d="M165.23,145.89v15.5H181v-15.5Zm-.25-.24h16.26v16H165Z" transform="translate(0.03 -0.01)"/><path class="cls-51" d="M165.07,145.73v15.8h16.09v-15.8Zm-.26-.25h16.6v16.29h-16.6Z" transform="translate(0.03 -0.01)"/><path class="cls-52" d="M164.9,145.56v16.13h16.43V145.56Zm-.25-.24h16.93v16.62H164.64Z" transform="translate(0.03 -0.01)"/><path class="cls-53" d="M164.73,145.39v16.46h16.76V145.39Zm-.25-.25h17.27v17H164.48Z" transform="translate(0.03 -0.01)"/><path class="cls-54" d="M164.56,145.24V162h17.08V145.24Zm-.25-.25h17.6v17.28h-17.6Z" transform="translate(0.03 -0.01)"/><path class="cls-55" d="M164.39,145.07v17.11h17.44V145.07Zm-.25-.25h17.94v17.57H164.14Z" transform="translate(0.03 -0.01)"/><path class="cls-56" d="M164.23,144.91v17.48H182V144.91Zm-.25-.25h18.27V162.6H164Z" transform="translate(0.03 -0.01)"/><path class="cls-57" d="M164.06,144.74v17.77h18.11V144.74Zm-.25-.24h18.61v18.26H163.81Z" transform="translate(0.03 -0.01)"/><path class="cls-58" d="M163.89,144.58v18.1h18.44v-18.1Zm-.25-.25h18.94v18.59H163.64Z" transform="translate(0.03 -0.01)"/><path class="cls-59" d="M163.72,144.39v18.43H182.5V144.39Zm-.25-.24h19.28v18.94H163.47Z" transform="translate(0.03 -0.01)"/><path class="cls-60" d="M163.56,144.25V163h19.08V144.25Zm-.25-.25h19.61v19.25H163.31Z" transform="translate(0.03 -0.01)"/><path class="cls-61" d="M163.39,144.08v19.09h19.45V144.08Zm-.25-.24h20v19.55h-20Z" transform="translate(0.03 -0.01)"/><path class="cls-62" d="M163.22,143.92v19.47H183V143.92Zm-.25-.25h20.29v19.91H163Z" transform="translate(0.03 -0.01)"/><path class="cls-63" d="M163.05,143.75V163.5h20.12V143.75Zm-.25-.24h20.62v20.24H162.8Z" transform="translate(0.03 -0.01)"/><path class="cls-64" d="M162.89,143.59v20.08h20.45V143.59Zm-.25-.2h21V164h-21Z" transform="translate(0.03 -0.01)"/><path class="cls-64" d="M162.72,143.39v20.4h20.79v-20.4Zm-.25-.25h21.29V164H162.47Z" transform="translate(0.03 -0.01)"/><path class="cls-65" d="M162.55,143.26V164h21.09V143.26Zm-.25-.25h21.63v21.23H162.3Z" transform="translate(0.03 -0.01)"/><path class="cls-66" d="M162.38,143.1v21.06h21.46V143.1Zm-.25-.25h22v21.54h-22Z" transform="translate(0.03 -0.01)"/><path class="cls-67" d="M162.22,142.93v21.39H184V142.93Zm-.26-.24h22.3v21.88H162Z" transform="translate(0.03 -0.01)"/><path class="cls-68" d="M162.05,142.77v21.72h22.13V142.77Zm-.25-.25h22.63v22.21H161.8Z" transform="translate(0.03 -0.01)"/><path class="cls-69" d="M161.88,142.6v22.05h22.46V142.6Zm-.24-.21h23v22.54h-23Z" transform="translate(0.03 -0.01)"/><path class="cls-70" d="M161.71,142.44v22.38h22.8V142.44Zm-.25-.25h23.3v22.87h-23.3Z" transform="translate(0.03 -0.01)"/><path class="cls-71" d="M161.54,142.27V165h23.1V142.27Zm-.25-.24h23.64v23.2H161.29Z" transform="translate(0.03 -0.01)"/><path class="cls-72" d="M161.38,142.11v23h23.47v-23Zm-.25-.25h24v23.53h-24Z" transform="translate(0.03 -0.01)"/><path class="cls-73" d="M161.21,141.94v23.37H185V141.94Zm-.25-.24h24.31v23.86H161Z" transform="translate(0.03 -0.01)"/><path class="cls-74" d="M161,141.78v23.7h24.14v-23.7Zm-.25-.25h24.64v24.19H160.79Z" transform="translate(0.03 -0.01)"/><path class="cls-75" d="M160.87,141.62v24h24.48v-24Zm-.23-.23h25v24.5h-25Z" transform="translate(0.03 -0.01)"/><path class="cls-76" d="M160.71,141.45V165.8h24.81V141.45Zm-.26-.25h25.32v24.85H160.45Z" transform="translate(0.03 -0.01)"/><path class="cls-76" d="M160.54,141.29V166h25.15V141.29Zm-.25-.25h25.65v25.18H160.29Z" transform="translate(0.03 -0.01)"/><path class="cls-77" d="M160.37,141.12v25h25.48v-25Zm-.25-.24h26v25.51h-26Z" transform="translate(0.03 -0.01)"/><path class="cls-78" d="M160.2,141V166.3H186V141Zm-.25-.25h26.32v25.84H160Z" transform="translate(0.03 -0.01)"/><path class="cls-79" d="M160,140.79v25.67h26.15V140.79Zm-.26-.24h26.66v26.16H159.78Z" transform="translate(0.03 -0.01)"/><path class="cls-80" d="M159.87,140.63v26h26.49v-26Zm-.23-.24h27v26.49h-27Z" transform="translate(0.03 -0.01)"/><path class="cls-81" d="M159.7,140.46v26.33h26.82V140.46Zm-.25-.24h27.33V167H159.45Z" transform="translate(0.03 -0.01)"/><path class="cls-82" d="M159.53,140.3V167h27.16V140.3Zm-.25-.25h27.66V167.2H159.28Z" transform="translate(0.03 -0.01)"/><path class="cls-83" d="M159.37,140.13v27h27.49v-27Zm-.26-.24h28v27.5h-28Z" transform="translate(0.03 -0.01)"/><path class="cls-83" d="M159.2,140v27.32H187V140Zm-.25-.25h28.33v27.81H159Z" transform="translate(0.03 -0.01)"/><path class="cls-84" d="M159,139.81v27.64h28.16V139.81Zm-.25-.25h28.67V167.7H158.78Z" transform="translate(0.03 -0.01)"/><path class="cls-85" d="M158.86,139.64v28h28.5v-28Zm-.22-.25h29v28.47h-29Z" transform="translate(0.03 -0.01)"/><path class="cls-86" d="M158.69,139.48v28.3h28.84v-28.3Zm-.25-.25h29.34V168H158.44Z" transform="translate(0.03 -0.01)"/><path class="cls-87" d="M158.53,139.31v28.63H187.7V139.31Zm-.25-.24H188v29.12H158.28Z" transform="translate(0.03 -0.01)"/><path class="cls-88" d="M158.36,139.15v29h29.51v-29Zm-.25-.25h30v29.49h-30Z" transform="translate(0.03 -0.01)"/><path class="cls-89" d="M158.19,139v29.29H188V139Zm-.25-.24h30.34v29.78H157.94Z" transform="translate(0.03 -0.01)"/><path class="cls-90" d="M158,138.82v29.62H188.2V138.82Zm-.25-.25h30.68v30.11H157.77Z" transform="translate(0.03 -0.01)"/><path class="cls-90" d="M157.86,138.65V168.6h30.51V138.65Zm-.22-.26h31v30.44h-31Z" transform="translate(0.03 -0.01)"/><path class="cls-91" d="M157.69,138.49v30.28h30.85V138.49Zm-.25-.25h31.35V169H157.44Z" transform="translate(0.03 -0.01)"/><path class="cls-91" d="M157.52,138.32v30.61H188.7V138.32Zm-.25-.24H189v31.1H157.27Z" transform="translate(0.03 -0.01)"/><path class="cls-92" d="M157.35,138.16V169.1h31.52V138.16Zm-.25-.25h32v31.48h-32Z" transform="translate(0.03 -0.01)"/><path class="cls-93" d="M157.19,138v31.26H189V138Zm-.26-.25h32.36v31.76H156.93Z" transform="translate(0.03 -0.01)"/><path class="cls-93" d="M157,137.83v31.56h32.19V137.83Zm-.25-.25h32.69v32.09H156.77Z" transform="translate(0.03 -0.01)"/><path class="cls-94" d="M156.85,137.67v31.92h32.52V137.67Zm-.21-.28h33v32.42h-33Z" transform="translate(0.03 -0.01)"/><path class="cls-95" d="M156.64,137.5v32.25h32.9V137.5Zm-.25-.24h33.36V170H156.43Z" transform="translate(0.03 -0.01)"/><path class="cls-96" d="M156.52,137.39V170h33.19V137.39Zm-.26-.25H190v33.08h-33.7Z" transform="translate(0.03 -0.01)"/><path class="cls-97" d="M156.35,137.17v32.91h33.53V137.17Zm-.25-.24h34v33.4h-34Z" transform="translate(0.03 -0.01)"/><path class="cls-97" d="M156.18,137v33.24H190V137Zm-.25-.25H190.3v33.73H155.93Z" transform="translate(0.03 -0.01)"/><path class="cls-98" d="M156,136.84v33.55h34.2V136.84Zm-.25-.24h34.7v34.06h-34.7Z" transform="translate(0.03 -0.01)"/><path class="cls-99" d="M155.84,136.68v33.9h34.54v-33.9Zm-.2-.29h35v34.39h-35Z" transform="translate(0.03 -0.01)"/><path class="cls-99" d="M155.64,136.51v34.23h34.87V136.51Zm-.25-.24h35.37V171H155.43Z" transform="translate(0.03 -0.01)"/><path class="cls-99" d="M155.51,136.39V171h35.21V136.39Zm-.25-.25H191v35.05H155.26Z" transform="translate(0.03 -0.01)"/><path class="cls-100" d="M155.34,136.19v34.88h35.54V136.19Zm-.25-.25h36v35.38h-36Z" transform="translate(0.03 -0.01)"/><path class="cls-101" d="M155.17,136v35.21h35.88V136Zm-.25-.25H191.3v35.71H154.92Z" transform="translate(0.03 -0.01)"/><path class="cls-102" d="M155,135.86v35.53h36.21V135.86Zm-.25-.25h36.71v36H154.76Z" transform="translate(0.03 -0.01)"/><path class="cls-101" d="M154.84,135.69v35.87h36.55V135.69Zm-.25-.24h37v36.36h-37Z" transform="translate(0.03 -0.01)"/><path class="cls-103" d="M154.64,135.53v36.2h36.88v-36.2Zm-.25-.25h37.39V172H154.42Z" transform="translate(0.03 -0.01)"/><path class="cls-104" d="M154.5,135.39v36.5h37.22v-36.5Zm-.25-.24H192v37H154.25Z" transform="translate(0.03 -0.01)"/><path class="cls-105" d="M154.34,135.2v36.86h37.55V135.2Zm-.26-.25h38.06V172.3H154.08Z" transform="translate(0.03 -0.01)"/><path class="cls-106" d="M154.17,135v37.19h37.89V135Zm-.25-.24h38.39v37.68H153.92Z" transform="translate(0.03 -0.01)"/><path class="cls-107" d="M154,134.87v37.52h38.22V134.87Zm-.25-.25h38.73v38H153.75Z" transform="translate(0.03 -0.01)"/><path class="cls-106" d="M153.83,134.7v37.85h38.56V134.7Zm-.25-.24h39.06V172.8H153.58Z" transform="translate(0.03 -0.01)"/><path class="cls-108" d="M153.64,134.54v38.18h38.89V134.54Zm-.26-.25h39.4V173h-39.4Z" transform="translate(0.03 -0.01)"/><path class="cls-109" d="M153.5,134.39v38.5h39.23v-38.5Zm-.25-.25H193v39H153.25Z" transform="translate(0.03 -0.01)"/><path class="cls-110" d="M153.33,134.21V173h39.56V134.21Zm-.25-.25h40.07v39.33H153.08Z" transform="translate(0.03 -0.01)"/><path class="cls-111" d="M153.16,134.05v39.16h39.9V134.05Zm-.25-.25h40.4v39.66h-40.4Z" transform="translate(0.03 -0.01)"/><path class="cls-111" d="M153,133.88v39.51h40.24V133.88Zm-.25-.24h40.74v40H152.74Z" transform="translate(0.03 -0.01)"/><path class="cls-111" d="M152.83,133.72v39.82H193.4V133.72Zm-.25-.25h41.06v40.32H152.58Z" transform="translate(0.03 -0.01)"/><path class="cls-112" d="M152.64,133.55V173.7h40.91V133.55Zm-.25-.24H193.8V174H152.41Z" transform="translate(0.03 -0.01)"/><path class="cls-113" d="M152.49,133.39v40.48h41.24V133.39Zm-.25-.25H194v41H152.24Z" transform="translate(0.03 -0.01)"/><path class="cls-114" d="M152.32,133.22V174H193.9V133.22Zm-.25-.24h42.08v41.3H152.07Z" transform="translate(0.03 -0.01)"/><path class="cls-115" d="M152.16,133.06V174.2h41.91V133.06Zm-.25-.25h42.41v41.63H151.91Z" transform="translate(0.03 -0.01)"/><path class="cls-116" d="M152,132.89v41.5h42.25v-41.5Zm-.25-.24h42.75v42H151.74Z" transform="translate(0.03 -0.01)"/><path class="cls-116" d="M151.82,132.73v41.8H194.4v-41.8Zm-.25-.25h43.07v42.29H151.57Z" transform="translate(0.03 -0.01)"/><path class="cls-117" d="M151.64,132.57v42.12h42.92V132.57Zm-.25-.25h43.42v42.62H151.4Z" transform="translate(0.03 -0.01)"/><path class="cls-118" d="M151.49,132.39v42.45h43.25V132.39Zm-.26-.25H195v43H151.23Z" transform="translate(0.03 -0.01)"/><path class="cls-119" d="M151.32,132.24V175h43.59V132.24Zm-.25-.25h44.09v43.28H151.07Z" transform="translate(0.03 -0.01)"/><path class="cls-120" d="M151.15,132.07v43.11h43.92V132.07Zm-.25-.24h44.43v43.56H150.9Z" transform="translate(0.03 -0.01)"/><path class="cls-121" d="M151,131.91v43.48h44.26V131.91Zm-.25-.25h44.76V175.6H150.73Z" transform="translate(0.03 -0.01)"/><path class="cls-122" d="M150.82,131.74v43.77h44.59V131.74Zm-.26-.24h45.08v44.26h-45.1Z" transform="translate(0.03 -0.01)"/><path class="cls-123" d="M150.64,131.58v44.1h44.93v-44.1Zm-.25-.25h45.43v44.59H150.4Z" transform="translate(0.03 -0.01)"/><path class="cls-122" d="M150.48,131.39v44.43h45.26V131.39Zm-.25-.24H196v44.94H150.23Z" transform="translate(0.03 -0.01)"/><path class="cls-124" d="M150.31,131.25V176h45.6V131.25Zm-.25-.25h46.1v45.25h-46.1Z" transform="translate(0.03 -0.01)"/><path class="cls-125" d="M150.14,131.08v45.09h45.94V131.08Zm-.25-.24h46.44v45.55H149.89Z" transform="translate(0.03 -0.01)"/><path class="cls-125" d="M150,130.92v45.47h46.27V130.92Zm-.25-.25H196.5v45.91H149.73Z" transform="translate(0.03 -0.01)"/><path class="cls-126" d="M149.81,130.76V176.5h46.61V130.76Zm-.25-.25h47.08v46.24H149.56Z" transform="translate(0.03 -0.01)"/><path class="cls-127" d="M149.64,130.59v46.07h46.94V130.59Zm-.25-.25h47.44v46.57H149.39Z" transform="translate(0.03 -0.01)"/><path class="cls-128" d="M149.47,130.39v46.4h47.28v-46.4Zm-.25-.25H197V177H149.22Z" transform="translate(0.03 -0.01)"/><path class="cls-129" d="M149.31,130.26V177h47.61V130.26Zm-.25-.24h48.11v47.22H149.06Z" transform="translate(0.03 -0.01)"/><path class="cls-130" d="M149.14,130.1v47.06h48V130.1Zm-.25-.25h48.45v47.54H148.89Z" transform="translate(0.03 -0.01)"/><path class="cls-131" d="M149,129.93v47.39h48.28V129.93Zm-.25-.24h48.79v47.88H148.72Z" transform="translate(0.03 -0.01)"/><path class="cls-132" d="M148.8,129.77v47.72h48.62V129.77Zm-.25-.25h49.09v48.21H148.55Z" transform="translate(0.03 -0.01)"/><path class="cls-132" d="M148.64,129.6v48.05h49V129.6Zm-.26-.24h49.46V177.9H148.38Z" transform="translate(0.03 -0.01)"/><path class="cls-133" d="M148.47,129.44v48.38h49.29V129.44Zm-.25-.25H198v48.87H148.22Z" transform="translate(0.03 -0.01)"/><path class="cls-134" d="M148.3,129.27V178h49.62V129.27Zm-.25-.24h50.13v49.2H148.05Z" transform="translate(0.03 -0.01)"/><path class="cls-135" d="M148.13,129.11v49h50v-49Zm-.25-.25h50.46v49.53H147.88Z" transform="translate(0.03 -0.01)"/><path class="cls-136" d="M148,129v49.36h50.29V129Zm-.26-.25h50.8v49.86h-50.8Z" transform="translate(0.03 -0.01)"/><path class="cls-137" d="M147.8,128.78v49.69h50.63V128.78Zm-.25-.25h51.09v50.19H147.55Z" transform="translate(0.03 -0.01)"/><path class="cls-138" d="M147.64,128.62v50h51v-50Zm-.25-.25h51.47v50.52H147.38Z" transform="translate(0.03 -0.01)"/><path class="cls-137" d="M147.46,128.45V178.8h51.3V128.45Zm-.25-.24H199v50.84h-51.8Z" transform="translate(0.03 -0.01)"/><path class="cls-139" d="M147.29,128.29V179h51.64V128.29ZM147,128h52.14v51.18H147Z" transform="translate(0.03 -0.01)"/><path class="cls-140" d="M147.13,128.12v51h52v-51Zm-.25-.24h52.47v51.51H146.88Z" transform="translate(0.03 -0.01)"/><path class="cls-141" d="M147,128V179.3h52.31V128Zm-.25-.25h52.81v51.83H146.71Z" transform="translate(0.03 -0.01)"/><path class="cls-142" d="M146.79,127.79v51.67h52.64V127.79Zm-.25-.24h53.1v52.16h-53.1Z" transform="translate(0.03 -0.01)"/><path class="cls-143" d="M146.64,127.63v52h53v-52Zm-.25-.25h53.48v52.49h-53.5Z" transform="translate(0.03 -0.01)"/><path class="cls-143" d="M146.46,127.46v52.33h53.31V127.46Zm-.25-.24H200V180H146.21Z" transform="translate(0.03 -0.01)"/><path class="cls-144" d="M146.29,127.3V180h53.65V127.3Zm-.25-.25h54.15V180.2H146Z" transform="translate(0.03 -0.01)"/><path class="cls-145" d="M146.12,127.14v53h54v-53Zm-.25-.25h54.49v53.5H145.87Z" transform="translate(0.03 -0.01)"/><path class="cls-146" d="M146,127v53.31h54.32V127Zm-.25-.25h54.82v53.81H145.7Z" transform="translate(0.03 -0.01)"/><path class="cls-147" d="M145.79,126.81v53.64h54.65V126.81Zm-.26-.25h55.16V180.7H145.53Z" transform="translate(0.03 -0.01)"/><path class="cls-148" d="M145.64,126.64v54h55v-54Zm-.25-.24h55.49v54.46H145.37Z" transform="translate(0.03 -0.01)"/><path class="cls-148" d="M145.45,126.48v54.3h55.32v-54.3Zm-.25-.25H201V181H145.2Z" transform="translate(0.03 -0.01)"/><path class="cls-149" d="M145.28,126.31v54.63h55.66V126.31Zm-.25-.24h56.16v55.12H145Z" transform="translate(0.03 -0.01)"/><path class="cls-150" d="M145.12,126.15v55h56v-55Zm-.26-.25h56.5v55.49h-56.5Z" transform="translate(0.03 -0.01)"/><path class="cls-151" d="M145,126v55.29h56.33V126Zm-.25-.24h56.83v55.78H144.7Z" transform="translate(0.03 -0.01)"/><path class="cls-152" d="M144.78,125.82v55.62h56.66V125.82Zm-.25-.25H201.7v56.11H144.53Z" transform="translate(0.03 -0.01)"/><path class="cls-153" d="M144.64,125.65V181.6h57V125.65Zm-.25-.24h57.5v56.44h-57.5Z" transform="translate(0.03 -0.01)"/><path class="cls-154" d="M144.44,125.49v56.28h57.34V125.49Zm-.25-.25H202V182H144.19Z" transform="translate(0.03 -0.01)"/><path class="cls-155" d="M144.28,125.33v56.6H202v-56.6Zm-.25-.25H202.2v57.1H144Z" transform="translate(0.03 -0.01)"/><path class="cls-156" d="M144.11,125.16v56.93h58V125.16Zm-.25-.25h58.51v57.48H143.86Z" transform="translate(0.03 -0.01)"/><path class="cls-157" d="M143.94,125v57.26h58.34V125Zm-.25-.25h58.84v57.76H143.69Z" transform="translate(0.03 -0.01)"/><path class="cls-158" d="M143.77,124.83v57.56h58.68V124.83Zm-.25-.25H202.7v58.09H143.52Z" transform="translate(0.03 -0.01)"/><path class="cls-159" d="M143.64,124.67v57.92h59V124.67Zm-.26-.25H202.9v58.42H143.35Z" transform="translate(0.03 -0.01)"/><path class="cls-160" d="M143.44,124.5v58.25h59.35V124.5Zm-.25-.24H203V183H143.19Z" transform="translate(0.03 -0.01)"/><path class="cls-161" d="M143.27,124.39V183H203V124.39Zm-.25-.25h60.19v59.07H143Z" transform="translate(0.03 -0.01)"/><path class="cls-161" d="M143.1,124.17v58.91h60V124.17Zm-.25-.24h60.52v59.4H142.85Z" transform="translate(0.03 -0.01)"/><path class="cls-162" d="M142.94,124v59.24h60.35V124Zm-.26-.25h60.86v59.73h-60.9Z" transform="translate(0.03 -0.01)"/><path class="cls-163" d="M142.77,123.84v59.55h60.69V123.84Zm-.25-.24h61.19v60.06H142.52Z" transform="translate(0.03 -0.01)"/><path class="cls-163" d="M142.64,123.68v59.9h61v-59.9Zm-.25-.25h61.53v60.39H142.35Z" transform="translate(0.03 -0.01)"/><path class="cls-164" d="M142.43,123.52v60.22h61.36V123.52Zm-.25-.25H204V184H142.18Z" transform="translate(0.03 -0.01)"/><path class="cls-165" d="M142.27,123.39v60.55H204V123.39Zm-.26-.25h62.2v61.05H142Z" transform="translate(0.03 -0.01)"/><path class="cls-166" d="M142.1,123.19v60.88h62V123.19Zm-.25-.25h62.53v61.38H141.85Z" transform="translate(0.03 -0.01)"/><path class="cls-167" d="M141.93,123v61.21h62.36V123Zm-.25-.25h62.87v61.71H141.64Z" transform="translate(0.03 -0.01)"/><path class="cls-168" d="M141.76,122.86v61.53h62.7V122.86Zm-.25-.25h63.2v62h-63.2Z" transform="translate(0.03 -0.01)"/><path class="cls-169" d="M141.64,122.69v61.87h63V122.69Zm-.25-.24h63.54v62.36H141.34Z" transform="translate(0.03 -0.01)"/><path class="cls-170" d="M141.43,122.53v62.2H204.8v-62.2Zm-.25-.25h63.87V185H141.18Z" transform="translate(0.03 -0.01)"/><path class="cls-171" d="M141.26,122.39v62.5H205v-62.5Zm-.25-.24h64.21v63H141Z" transform="translate(0.03 -0.01)"/><path class="cls-172" d="M141.09,122.2v62.86h64V122.2Zm-.25-.25h64.54V185.3H140.84Z" transform="translate(0.03 -0.01)"/><path class="cls-173" d="M140.92,122v63.19H205.3V122Zm-.25-.24h64.88v63.68H140.64Z" transform="translate(0.03 -0.01)"/><path class="cls-173" d="M140.76,121.87v63.52h64.71V121.87Zm-.25-.25h65.21v64H140.51Z" transform="translate(0.03 -0.01)"/><path class="cls-174" d="M140.64,121.71v63.84h65V121.71Zm-.25-.25h65.55V185.8h-65.6Z" transform="translate(0.03 -0.01)"/><path class="cls-175" d="M140.42,121.54v64.17H205.8V121.54Zm-.25-.25h65.89V186H140.17Z" transform="translate(0.03 -0.01)"/><path class="cls-176" d="M140.25,121.39v64.5H206v-64.5Zm-.25-.25h66.22v65H140Z" transform="translate(0.03 -0.01)"/><path class="cls-177" d="M140.09,121.21V186h66V121.21Zm-.26-.25h66.56v65.33H139.83Z" transform="translate(0.03 -0.01)"/><path class="cls-178" d="M139.92,121.05v65.16h66.39V121.05Zm-.25-.25h66.89v65.66H139.64Z" transform="translate(0.03 -0.01)"/><path class="cls-179" d="M139.75,120.88v65.51h66.72V120.88Zm-.25-.24h67.23v66H139.5Z" transform="translate(0.03 -0.01)"/><path class="cls-180" d="M139.58,120.72v65.82h67.06V120.72Zm-.25-.25h67.56v66.31H139.33Z" transform="translate(0.03 -0.01)"/><path class="cls-181" d="M139.42,120.55V186.7h67.39V120.55Zm-.26-.24h67.9V187h-67.9Z" transform="translate(0.03 -0.01)"/><path class="cls-182" d="M139.25,120.39v66.48H207V120.39Zm-.25-.25h68.23v67H139Z" transform="translate(0.03 -0.01)"/><path class="cls-183" d="M139.08,120.22V187h68.06V120.22Zm-.25-.24H207.4v67.3H138.83Z" transform="translate(0.03 -0.01)"/><path class="cls-184" d="M138.91,120.06V187.2h68.4V120.06Zm-.25-.25h68.9v67.63H138.64Z" transform="translate(0.03 -0.01)"/><path class="cls-185" d="M138.74,119.9v67.49h68.74V119.9Zm-.25-.25h69.24v68H138.49Z" transform="translate(0.03 -0.01)"/><path class="cls-186" d="M138.58,119.73v67.8h69.06v-67.8Zm-.25-.25H207.9v68.29H138.33Z" transform="translate(0.03 -0.01)"/><path class="cls-187" d="M138.41,119.57v68.12h69.41V119.57Zm-.25-.25h69.91v68.62H138.16Z" transform="translate(0.03 -0.01)"/><path class="cls-188" d="M138.24,119.39v68.45H208V119.39Zm-.25-.25h70.24v69H138Z" transform="translate(0.03 -0.01)"/><path class="cls-189" d="M138.07,119.24V188h70.08V119.24Zm-.25-.25H208.4v69.28H137.82Z" transform="translate(0.03 -0.01)"/><path class="cls-190" d="M137.91,119.07v69.11h70.41V119.07Zm-.25-.24h70.91v69.56H137.64Z" transform="translate(0.03 -0.01)"/><path class="cls-191" d="M137.74,118.91v69.48h70.75V118.91Zm-.25-.25h71.25v69.93H137.49Z" transform="translate(0.03 -0.01)"/><path class="cls-192" d="M137.57,118.74v69.77h71.07V118.74Zm-.25-.24h71.59v70.26H137.32Z" transform="translate(0.03 -0.01)"/><path class="cls-193" d="M137.4,118.58v70.1h71.42v-70.1Zm-.25-.25h71.92v70.59H137.15Z" transform="translate(0.03 -0.01)"/><path class="cls-194" d="M137.24,118.39v70.43H209V118.39Zm-.26-.24h72.26v70.94H137Z" transform="translate(0.03 -0.01)"/><path class="cls-195" d="M137.07,118.25V189h72.09V118.25Zm-.25-.25h72.59v71.25H136.82Z" transform="translate(0.03 -0.01)"/><path class="cls-195" d="M136.9,118.09v71.08h72.42V118.09Zm-.25-.25h72.93v71.55H136.64Z" transform="translate(0.03 -0.01)"/><path class="cls-196" d="M136.73,117.92v71.41h72.76V117.92Zm-.25-.25h73.26v71.91H136.48Z" transform="translate(0.03 -0.01)"/><path class="cls-197" d="M136.57,117.76V189.5h73.07V117.76Zm-.26-.25h73.6v72.24h-73.6Z" transform="translate(0.03 -0.01)"/><path class="cls-198" d="M136.4,117.59v72.07h73.43V117.59Zm-.25-.25h73.93v72.57H136.15Z" transform="translate(0.03 -0.01)"/><path class="cls-199" d="M136.23,117.39v72.4H210v-72.4Zm-.25-.25h74.27V190H136Z" transform="translate(0.03 -0.01)"/><path class="cls-200" d="M136.06,117.26V190h74.1V117.26Zm-.25-.24h74.6v73.22h-74.6Z" transform="translate(0.03 -0.01)"/><path class="cls-200" d="M135.89,117.1v73.06h74.44V117.1Zm-.25-.25h74.94v73.54H135.64Z" transform="translate(0.03 -0.01)"/><path class="cls-201" d="M135.73,116.93v73.39H210.5V116.93Zm-.25-.24h75.27v73.88H135.48Z" transform="translate(0.03 -0.01)"/><path class="cls-202" d="M135.56,116.77v73.72h75.08V116.77Zm-.25-.25h75.61v74.21H135.31Z" transform="translate(0.03 -0.01)"/><path class="cls-203" d="M135.39,116.6v74.05h75.44V116.6Zm-.25-.24h75.94V190.9H135.14Z" transform="translate(0.03 -0.01)"/><path class="cls-204" d="M135.22,116.44v74.38H211V116.44Zm-.25-.25h76.28v74.87H135Z" transform="translate(0.03 -0.01)"/><path class="cls-205" d="M135.06,116.28V191h76.11v-74.7Zm-.25-.25h76.61v75.2H134.81Z" transform="translate(0.03 -0.01)"/><path class="cls-205" d="M134.89,116.11v75h76.45v-75Zm-.25-.25h77v75.53h-77Z" transform="translate(0.03 -0.01)"/><path class="cls-206" d="M134.72,116v75.36H211.5V116Zm-.25-.25h77.29v75.86H134.47Z" transform="translate(0.03 -0.01)"/><path class="cls-207" d="M134.55,115.78v75.69h77.09V115.78Zm-.25-.25h77.62v76.19H134.3Z" transform="translate(0.03 -0.01)"/><path class="cls-207" d="M134.39,115.62v76h77.45v-76Zm-.26-.25h78v76.52h-78Z" transform="translate(0.03 -0.01)"/><path class="cls-208" d="M134.22,115.45V191.8H212V115.45Zm-.25-.24h78.29v76.84H134Z" transform="translate(0.03 -0.01)"/><path class="cls-209" d="M134.05,115.29V192h78.12V115.29Zm-.25-.25h78.63v77.17H133.8Z" transform="translate(0.03 -0.01)"/><path class="cls-209" d="M133.88,115.12v77h78.46v-77Zm-.25-.24h79v77.51h-79Z" transform="translate(0.03 -0.01)"/><path class="cls-210" d="M133.72,115V192.3h78.79V115Zm-.26-.25h79.3v77.83h-79.3Z" transform="translate(0.03 -0.01)"/><path class="cls-211" d="M133.55,114.79v77.67h79.09V114.79Zm-.25-.24h79.63v78.16H133.3Z" transform="translate(0.03 -0.01)"/><path class="cls-212" d="M133.38,114.63v78h79.46v-78Zm-.25-.25h80v78.49h-80Z" transform="translate(0.03 -0.01)"/><path class="cls-213" d="M133.21,114.47v78.32H213V114.47Zm-.25-.25h80.3V193H133Z" transform="translate(0.03 -0.01)"/><path class="cls-214" d="M133,114.3V193h80.14V114.3Zm-.25-.25h80.64V193.2H132.79Z" transform="translate(0.03 -0.01)"/><path class="cls-214" d="M132.88,114.14v79h80.47v-79Zm-.25-.25h81v79.5h-81Z" transform="translate(0.03 -0.01)"/><path class="cls-215" d="M132.71,114v79.31h80.81V114Zm-.25-.25h81.31v79.81H132.46Z" transform="translate(0.03 -0.01)"/><path class="cls-215" d="M132.54,113.81v79.64h81.1V113.81Zm-.25-.25h81.64V193.7H132.29Z" transform="translate(0.03 -0.01)"/><path class="cls-216" d="M132.37,113.64v80h81.48v-80Zm-.25-.24h82v80.46h-82Z" transform="translate(0.03 -0.01)"/><path class="cls-216" d="M132.21,113.48v80.3H214v-80.3Zm-.25-.25h82.31V194H132Z" transform="translate(0.03 -0.01)"/><path class="cls-216" d="M132,113.31v80.63h82.15V113.31Zm-.25-.24h82.65v81.12H131.79Z" transform="translate(0.03 -0.01)"/><path class="cls-216" d="M131.87,113.15v81h82.48v-81Zm-.25-.25h83v81.49h-83Z" transform="translate(0.03 -0.01)"/><path class="cls-217" d="M131.7,113v81.29h82.82V113Zm-.25-.24h83.32v81.78H131.45Z" transform="translate(0.03 -0.01)"/><path class="cls-218" d="M131.54,112.82v81.62h83.15V112.82Zm-.26-.25h83.66v82.11H131.28Z" transform="translate(0.03 -0.01)"/><path class="cls-218" d="M131.37,112.66V194.6h83.49V112.66Zm-.25-.25h84v82.44h-84Z" transform="translate(0.03 -0.01)"/><path class="cls-219" d="M131.2,112.49v82.28H215V112.49Zm-.25-.25h84.33V195H131Z" transform="translate(0.03 -0.01)"/><path class="cls-219" d="M131,112.33v82.6h84.16v-82.6Zm-.25-.25h84.66v83.1H130.78Z" transform="translate(0.03 -0.01)"/><path class="cls-220" d="M130.87,112.16v82.93h84.49V112.16Zm-.26-.25h85v83.48h-85Z" transform="translate(0.03 -0.01)"/><path class="cls-6" d="M130.7,112v83.26h84.83V112Zm-.25-.25h85.33v83.76H130.45Z" transform="translate(0.03 -0.01)"/><path class="cls-6" d="M130.53,111.83v83.56h85.16V111.83Zm-.25-.24H216v84.08H130.28Z" transform="translate(0.03 -0.01)"/><path class="cls-6" d="M130.36,111.67v83.92h85.5V111.67Zm-.17-.17H216v84.25H130.19Z" transform="translate(0.03 -0.01)"/></g><path class="cls-221" d="M71,42.06l14.57-3.84c6-1,6-.79,8.84,3.91l8.15,16.48c2,4.3,1.81,4.55,1,7.47L100.93,76.3c-1.25,4.56-3.27,4.2-6.16-.07l-6.55-10c-3.28-4.24-3.61-3.55-9.55-2.64L65.2,65.65c-7.32,1-7.5,1.92-5.14-5.52l3.62-11.42C65.52,43.64,65.7,43.64,71,42.06Z" transform="translate(0.03 -0.01)"/><path class="cls-6" d="M388.94,142.39a22.3,22.3,0,0,0,8.34-1.65,31.39,31.39,0,0,0,8.36-5.17,40.22,40.22,0,0,0,7.22-7.75,37.11,37.11,0,0,0,4.44-8.4V71.78h14.55v81.14H417.3v-7.83a49.92,49.92,0,0,1-8.23,6.31,39.43,39.43,0,0,1-9.85,4.35,38.42,38.42,0,0,1-10.6,1.47,43.07,43.07,0,0,1-18.38-3.73,35.87,35.87,0,0,1-13.82-11.32,43.19,43.19,0,0,1-6.59-12.64,46.4,46.4,0,0,1-2.19-14.37V71.78h14.55v43.38a34.85,34.85,0,0,0,1.34,10,25.51,25.51,0,0,0,4,8h0a21.12,21.12,0,0,0,8.57,6.86A31.64,31.64,0,0,0,388.94,142.39ZM486.53,82.7a22.34,22.34,0,0,0-8.39,1.63,31.59,31.59,0,0,0-8.4,5.12h0a39.42,39.42,0,0,0-7.2,7.73,37,37,0,0,0-4.45,8.5v47.6H443.86V71.94h14.41l-.08,7.87a48.22,48.22,0,0,1,7.9-6,43.17,43.17,0,0,1,10.18-4.47,38.05,38.05,0,0,1,10.66-1.53,43.22,43.22,0,0,1,18.38,3.73,35.88,35.88,0,0,1,13.82,11.35,43.43,43.43,0,0,1,6.59,12.66A46.92,46.92,0,0,1,527.9,110v43.3H513.36V110A35,35,0,0,0,512,99.93,25.11,25.11,0,0,0,508,92h0a21,21,0,0,0-8.58-6.87,31.8,31.8,0,0,0-12.92-2.37ZM556.4,32.54V93.66l59.45-25.27,5.6,13.66L602,90.34l.92.5a49.68,49.68,0,0,1,10.47,8h0a40.68,40.68,0,0,1,6.68,8.6,42.23,42.23,0,0,1,4.22,10.13h0a53.84,53.84,0,0,1,1.59,8.73,104,104,0,0,1,.51,10.59v15.83l-14.54.76V140.53a118.57,118.57,0,0,0-.58-12.78,37.51,37.51,0,0,0-1.61-8.06h0a26.82,26.82,0,0,0-2.58-5.47,23.38,23.38,0,0,0-3.56-4.43h0a43.66,43.66,0,0,0-5.73-4.68,29,29,0,0,0-5.48-2.9h0a30.41,30.41,0,0,0-6.16-1.56,51.31,51.31,0,0,0-7-.54l-22.69,9.63V153.3H541.85v-125H556.4v4.23ZM675.81,142.39a22.3,22.3,0,0,0,8.34-1.65,31.44,31.44,0,0,0,8.37-5.17,40.46,40.46,0,0,0,7.21-7.75,37.11,37.11,0,0,0,4.44-8.4V71.78h14.55v81.14H704.17v-7.83a49.86,49.86,0,0,1-8.23,6.3,39,39,0,0,1-9.84,4.35,38.44,38.44,0,0,1-10.61,1.47,43.07,43.07,0,0,1-18.38-3.73,36,36,0,0,1-13.82-11.32,43.19,43.19,0,0,1-6.59-12.64,46.43,46.43,0,0,1-2.18-14.37V71.78h14.54v43.38a34.85,34.85,0,0,0,1.34,10,25.64,25.64,0,0,0,4,8h0A21.09,21.09,0,0,0,663,140,31.82,31.82,0,0,0,675.81,142.39Zm-387.38-3.21a34.28,34.28,0,0,0,4.87,1.3,25.66,25.66,0,0,0,4.55.4,26.24,26.24,0,0,0,11-2.31,30,30,0,0,0,9.56-7.13c5.7-6.19,8.67-13.44,8.69-20.62,0-7-2.73-14-8.47-20a24.92,24.92,0,0,0-8.29-5.77,26.14,26.14,0,0,0-10.11-1.91,28.39,28.39,0,0,0-10.46,2,35,35,0,0,0-9.94,6.09,30.57,30.57,0,0,0-7.05,8.11,15.38,15.38,0,0,0-2.13,7.65v80.66H256v-80.8a30.68,30.68,0,0,1,3.62-14.5A42.11,42.11,0,0,1,270,79.88a49.76,49.76,0,0,1,14.44-8.64,45.39,45.39,0,0,1,16.17-2.95A41.18,41.18,0,0,1,342,110.13a47.77,47.77,0,0,1-13,31.36,44.85,44.85,0,0,1-14.33,10.62,40.48,40.48,0,0,1-16.93,3.58,43.42,43.42,0,0,1-8.66-.88,44.65,44.65,0,0,1-8.38-2.59h-.11l-5.74-2.44L286,138.33Z" transform="translate(0.03 -0.01)"/><path d="M379.48,229.11v14.17l.83-.17c-.3,1.82-.58,3.59-.9,5.35-.17.88-.68,1.47-1.67,1.33-1.2-.17-2.4-1.52-2.09-2.52,1.08-3.6.62-7.29.78-10.94.13-2.91,0-5.84,0-8.76a7.25,7.25,0,0,0-.77-3.56,3,3,0,0,1,.41-3.83,1.37,1.37,0,0,0,.2-1c-.22-3.47-.42-6.93-.74-10.39-.05-.63-.5-1.65-.89-1.71-.66-.1-1.42.4-2.13.67-.1,0-.15.19-.25.26L371,209c-.22-.57-.68-1.19-.59-1.7a6.11,6.11,0,0,1,1.11-2.38,4.1,4.1,0,0,1,1.61-1c2.28-1,4.24-.29,4.87,2.15a55.54,55.54,0,0,1,1,6.72c.09.61.07,1.24.11,2.09a50.44,50.44,0,0,1,2.13-5,23.24,23.24,0,0,1,3.19-4.59c3.42-3.64,9.23-1.76,10.88,2.53,2.47,6.47.3,15.64-4.87,20.19C387.19,230.79,384,231.15,379.48,229.11Zm13.42-16.53a23.37,23.37,0,0,0-1.1-4.11c-.92-2.11-3.11-2.47-4.85-1a9.46,9.46,0,0,0-1.43,1.6,35.28,35.28,0,0,0-5.63,14.49c-.32,2-.11,2.33,1.79,3.11,2.89,1.17,5.94.06,8.06-3S392.72,217.14,392.9,212.58Z" transform="translate(0.03 -0.01)"/><path d="M317.2,210.34c.47-.82.84-1.58,1.32-2.26,1.32-1.89,3.15-2.13,4.75-.47a10.15,10.15,0,0,1,2.32,3.44c1.21,3.37,2.16,6.83,3.21,10.26a3.74,3.74,0,0,0,.59,1.37c.36-1.73.67-3.47,1.1-5.18,1-3.86,2-7.73,3.12-11.56a14.9,14.9,0,0,1,2-3.93,2.32,2.32,0,0,1,3.88-.32,11.86,11.86,0,0,1,2.21,3.5,54.58,54.58,0,0,1,3,12.43c.73,4.61,1.57,9.21,2.34,13.81.12.71.31,1.5-.67,1.78a2.38,2.38,0,0,1-2.42-1.73c-.36-2-.53-4-1-6-1.3-6-2.68-12-4.06-18a18.67,18.67,0,0,0-1.07-2.53,16.45,16.45,0,0,0-1.2,2.48c-1.67,6-3.29,12-4.91,18a21.9,21.9,0,0,1-.52,2.33c-.23.58-.68,1.4-1.13,1.47a3.1,3.1,0,0,1-2-.71,2.9,2.9,0,0,1-.71-1.47c-1.43-4.77-2.79-9.57-4.3-14.32a9.58,9.58,0,0,0-1.74-2.43,11.38,11.38,0,0,0-2,2.22,37.18,37.18,0,0,0-3.42,12.4c-.27,2.12-.13,4.29-.27,6.42,0,.51-.37,1.31-.74,1.42a2,2,0,0,1-1.66-.45,2.59,2.59,0,0,1-.71-1.7,66.22,66.22,0,0,1,2.23-19.21C315.21,209.74,315.87,209.49,317.2,210.34Z" transform="translate(0.03 -0.01)"/><path d="M532.41,222.16c-1.52,2.39-2.93,4.94-4.66,7.25a7.45,7.45,0,0,1-5.79,3.2,5.21,5.21,0,0,1-5.71-4.53,22.89,22.89,0,0,1,.47-10,33.25,33.25,0,0,1,6.48-13.61c1.75-2.09,3.81-3.53,6.74-3.08a4.7,4.7,0,0,1,3.45,2c.9,1.44,1.6,3,2.37,4.55a1.09,1.09,0,0,1,.1.8c-.3.54-.66,1.41-1.06,1.45-.9.09-.83-.78-.9-1.48a4.65,4.65,0,0,0-2.74-3.92,3.61,3.61,0,0,0-4.22.73,21.22,21.22,0,0,0-4.8,7.24c-1.92,4.25-3.4,8.62-3.27,13.37,0,1.25.16,2.57,1.52,3.15a3.59,3.59,0,0,0,4-.8,18.89,18.89,0,0,0,4.79-7.92,36.53,36.53,0,0,0,2.17-10.39,1.4,1.4,0,0,1,.57-1.06,1.38,1.38,0,0,1,1.18.21,4.48,4.48,0,0,1,1.94,3.86c0,4.18.21,8.37.41,12.56a7.38,7.38,0,0,0,.65,2.41,2.09,2.09,0,0,0,3.51.8,6.13,6.13,0,0,1,1.53-.62,5.89,5.89,0,0,1,.26,1.77,3.14,3.14,0,0,1-2.79,2.28,3.68,3.68,0,0,1-4-2,38.9,38.9,0,0,1-1.78-5.67A21.33,21.33,0,0,1,532.41,222.16Z" transform="translate(0.03 -0.01)"/><path d="M604.17,210.29c.11,1.27.25,2.38.3,3.5.19,4.14.34,8.28.54,12.42a5.27,5.27,0,0,0,.39,1.5c.74,2,2.25,2.4,3.9,1a3.69,3.69,0,0,1,1.35-.42,4.13,4.13,0,0,1,.35,1.31c-.18,2-2.53,3.24-4.58,2.58a4.2,4.2,0,0,1-2.91-3c-.69-2.43-1.24-4.9-1.81-7.19-.84,1.58-1.74,3.39-2.75,5.13a11.93,11.93,0,0,1-4.41,4.48c-4.21,2.4-8.52.3-8.94-4.5-.77-8.85,2.09-16.59,7.7-23.35a6.32,6.32,0,0,1,5.35-2.48,5.43,5.43,0,0,1,4.93,3,32.88,32.88,0,0,1,1.61,3.33C605.7,209.05,605.17,210,604.17,210.29Zm-.9-.55c.3-2.78-1.42-5.1-3.92-5.31-1.76-.16-2.94.85-4,2.09A32.71,32.71,0,0,0,589,220.43a29.29,29.29,0,0,0-.49,6.75c0,1.63,1.11,2.37,2.75,2.32a4.74,4.74,0,0,0,3.69-2.16c3.79-4.93,5.26-10.66,5.83-16.72.05-.54.26-1.31.64-1.51s1,.28,1.54.47A1.77,1.77,0,0,1,603.27,209.74Z" transform="translate(0.03 -0.01)"/><path d="M494.85,210.24c.1,1.24.25,2.5.3,3.76.17,3.86.28,7.73.49,11.59a7.79,7.79,0,0,0,.68,2.53c.66,1.59,2.17,1.86,3.52.81a5.5,5.5,0,0,1,1.63-.56,5.56,5.56,0,0,1,.12,1.8,3.05,3.05,0,0,1-2.86,2.18,3.57,3.57,0,0,1-3.9-2,42.62,42.62,0,0,1-1.84-5.91,21.66,21.66,0,0,1-.4-2.66c-1,1.82-1.83,3.55-2.79,5.23a13.32,13.32,0,0,1-4.11,4.44c-3.27,2.23-8.65,1.58-9.37-4.16-.61-4.86.43-9.45,2.09-13.95a28.29,28.29,0,0,1,5.46-9.35c1.7-1.87,3.71-3,6.36-2.57a4.59,4.59,0,0,1,3.34,1.9,31,31,0,0,1,2.38,4.53C496.51,209.18,495.79,210.22,494.85,210.24Zm-.71-.34a11.43,11.43,0,0,0,0-1.2,4.74,4.74,0,0,0-2.62-3.88,3.53,3.53,0,0,0-4.22.58,15,15,0,0,0-2.2,2.51,33.18,33.18,0,0,0-5.33,12.46,27.71,27.71,0,0,0-.5,6.74c.11,2,1.79,3,3.72,2.19a6.62,6.62,0,0,0,2.65-1.93c3.89-4.9,5.31-10.7,5.92-16.79a2.26,2.26,0,0,1,.65-1.5c.25-.18.95.26,1.44.45C493.77,209.57,493.87,209.7,494.14,209.9Z" transform="translate(0.03 -0.01)"/><path d="M614.47,222.18a7.86,7.86,0,0,0-.39,1.22,14.82,14.82,0,0,0-.37,3.29,3.25,3.25,0,0,0,3.56,3.27c6.54-.41,13.05-7.53,10.72-14.83-1-3.2-3.11-4.89-6.06-4.85a4.74,4.74,0,0,0-2.38.64,8.69,8.69,0,0,0-4.17,7.51c0,1.38-.63,2.47-1.61,2.58s-2.21-1.14-2.22-2.42c0-2.83-.1-5.68.09-8.51a44.45,44.45,0,0,1,4.9-18.38c.75-1.4,1.21-1.72,2.22-1.21a2.53,2.53,0,0,1,.87,3.43c-3.39,5.31-4.56,11.26-5.11,17.4a2.12,2.12,0,0,0,.12.59c.33-.49.57-.84.82-1.19,2.83-4.08,6.9-4.4,10.88-2.34,3,1.58,4.61,4.3,5.23,7.62,1.21,6.46-2.75,13.71-8.8,15.94a13.54,13.54,0,0,1-6.59.79c-4.5-.59-5.45-6.18-3.46-8.93.45-.62,1-1.18,1.52-1.76Z" transform="translate(0.03 -0.01)"/><path d="M424,221.18c-1.33,5.65,2.51,9.67,8.09,8.49a13.48,13.48,0,0,0,7.82-5,5.51,5.51,0,0,0,.69-1.37c.35-.88.93-1,1.64-.42s.83,1.79,0,2.93a16.08,16.08,0,0,1-10.14,6.72,8.87,8.87,0,0,1-9.35-3.45,10.93,10.93,0,0,1-1.9-6.21c0-.39,0-.79,0-1.3a9.05,9.05,0,0,1-2.1,0c-.58-.16-1.39-.53-1.54-1a6.8,6.8,0,0,1-.1-2.63c0-.14.66-.29,1-.32.2,0,.42.2.64.28,1.62.65,2.36.28,2.79-1.36a27.25,27.25,0,0,1,6.85-12.72,14.26,14.26,0,0,1,3.06-2.28,5.27,5.27,0,0,1,6,.17c1.88,1.32,2.32,3.32,2.08,5.43-.5,4.32-2.88,7.54-6.29,10.06A22.66,22.66,0,0,1,424,221.18Zm.58-3.44a16.27,16.27,0,0,0,9-4.75,11,11,0,0,0,2.92-5.67,3.21,3.21,0,0,0-1.32-3.47c-1.3-.63-2.24.18-3.09,1C428.32,208.26,426.33,212.76,424.61,217.74Z" transform="translate(0.03 -0.01)"/><path d="M639.23,221.18c-.71,3.63.19,6.25,2.66,7.76a7.6,7.6,0,0,0,6.38.49,13.51,13.51,0,0,0,6.5-4.3,7.32,7.32,0,0,0,1.05-1.85c.38-.86,1-1.08,1.63-.37a4.31,4.31,0,0,1,.59,1.6c0,.16-.09.38-.17.56-1.9,4.61-9.8,8.6-14.7,7.43a9,9,0,0,1-6.93-7.81c-.13-1-.2-2-.32-3.12-.67,0-1.37,0-2.07,0a1.4,1.4,0,0,1-1.54-1.21,8.07,8.07,0,0,1,.05-2.5c0-.12.84-.22,1.26-.16.89.12,1.76.35,2.65.53.51-1.68.88-3.18,1.4-4.63,1.4-3.87,3.29-7.49,6.44-10.22a12.22,12.22,0,0,1,4.41-2.49,4.88,4.88,0,0,1,6.2,4.46c.35,3.83-1.25,6.93-3.78,9.61C647.93,218.16,644.33,220,639.23,221.18Zm.57-3.38c1.08-.31,1.93-.5,2.74-.8,4.23-1.59,7.54-4.18,8.88-8.69a6.19,6.19,0,0,0,0-3.14,1.86,1.86,0,0,0-3-1.15,10.16,10.16,0,0,0-2.28,1.9C643.13,209.28,641.3,213.28,639.8,217.8Z" transform="translate(0.03 -0.01)"/><path d="M574.78,232.57c-2-.58-3.93-1-5.73-1.67a6,6,0,0,1-3.59-4.23,5.05,5.05,0,0,1,.74-4.56,13,13,0,0,1,1.26-1.73,2,2,0,0,1,1.37-.64,2.68,2.68,0,0,1,1.55.92c.13.17-.32,1-.68,1.32-3,2.79-2.44,5.12,1.44,6.33a12.5,12.5,0,0,0,6.86.17,8.16,8.16,0,0,0,2.66-1.31c2-1.42,2.12-3,.36-4.57s-4-3.09-5.89-4.71a47.63,47.63,0,0,1-5-4.65c-2-2.26-2.69-5-1.24-7.78s4.15-3.89,7.2-3.88a8.8,8.8,0,0,1,7.08,2.92,3.13,3.13,0,0,1,.7,1.92c0,.41-.64,1-1.11,1.15-.27.1-.94-.3-1.15-.65-1.78-2.89-7.73-3.25-9.76-.56a3.21,3.21,0,0,0,.23,4.39c1.91,2,4.06,3.82,6.14,5.68,1.51,1.36,3.2,2.54,4.58,4,3.45,3.72,2.55,8.3-2.11,10.42A41,41,0,0,1,574.78,232.57Z" transform="translate(0.03 -0.01)"/><path d="M413.87,205.46c-1.47.77-2,1.9-2.6,4.89a8.18,8.18,0,0,1-1-2,8.6,8.6,0,0,1,.79-5.48,3,3,0,0,1,3-1.94,2.55,2.55,0,0,1,2.26,2.58,43.87,43.87,0,0,1,.25,7.51,37.53,37.53,0,0,1-4.35,15.56,17,17,0,0,1-3.35,4.33c-3.8,3.48-8.48,2.15-10-2.74A30.61,30.61,0,0,1,397.82,216c.28-3,.85-5.92,1.32-8.87.15-.91.72-1.11,1.46-.52,1.11.87,1.07,2,.82,3.27a40.13,40.13,0,0,0-.42,15.93c.33,1.65.83,3.27,2.76,3.68s3.3-.83,4.32-2.36A35.61,35.61,0,0,0,413,213.84c.41-2.11.6-4.26.85-6.4A18.5,18.5,0,0,0,413.87,205.46Z" transform="translate(0.03 -0.01)"/><path d="M661.93,215.72a35.28,35.28,0,0,1,.74-3.71c.81-2.62,1.64-5.24,2.67-7.78.63-1.57,1.64-3,3.64-3a4,4,0,0,1,3.8,3,79.59,79.59,0,0,1,2.32,8.5c.26,1.12-1.63,2.43-2.65,1.92a1.41,1.41,0,0,1-.43-1.08,13.36,13.36,0,0,0-1.31-6.5c-.27-.56-.88-1.33-1.32-1.33a2.18,2.18,0,0,0-1.62,1.13,51,51,0,0,0-2.67,7.39,40.22,40.22,0,0,0-1,16.63c.16.91-.07,1.62-1.07,1.81a1.45,1.45,0,0,1-1.85-1.25c-.65-3.25-1.44-6.48-1.82-9.77-.51-4.39-.73-8.82-1-13.24a12.1,12.1,0,0,1,.44-3.43c.31-1.33,1.49-2.24,2.31-2s1.47,1.79,1.14,2.91C661.34,209.12,661.72,212.4,661.93,215.72Z" transform="translate(0.03 -0.01)"/><path d="M446.56,215.34c.89-3.05,1.74-6.2,2.73-9.3a12.66,12.66,0,0,1,1.65-3.18c1.52-2.19,3.78-2.31,5.54-.3A7,7,0,0,1,458,205.1c.75,2.48,1.35,5,1.9,7.53.25,1.18-1.63,2.54-2.7,2a1.33,1.33,0,0,1-.41-1.08,13.31,13.31,0,0,0-1.51-6.93c-.64-1.25-1.62-1.39-2.39-.23a16.29,16.29,0,0,0-1.9,3.83,47.89,47.89,0,0,0-2.44,17.94,17.74,17.74,0,0,0,.33,2.61c.2.92,0,1.6-.94,1.9a1.49,1.49,0,0,1-2-1.22c-.43-1.79-.8-3.59-1.13-5.4a90.15,90.15,0,0,1-1.65-17.27,19,19,0,0,1,.34-3.45c.29-1.52,1.51-2.61,2.43-2.33s1.42,2,1.05,3.29a28.15,28.15,0,0,0-.5,8.92C446.51,215.3,446.59,215.4,446.56,215.34Z" transform="translate(0.03 -0.01)"/><path d="M469.91,204.47c3.06.55,5.7.87,8.31-.06.8-.29,1.13.06,1.31.73.33,1.25-.51,2.18-2,2.14-2.08-.07-4.15-.15-6.23-.3-1-.07-1.39.08-1.46,1.21-.36,6.1-.82,12.2-1.25,18.42l.89-1.55.2.05-.51,2.83c-.24,1.37-.49,2.75-.71,4.13-.16,1-.57,1.67-1.7,1.59a1.74,1.74,0,0,1-1.67-2c.13-1.83.46-3.65.6-5.48.48-6.25.92-12.51,1.37-18.77A2.22,2.22,0,0,0,467,207c-1.62-.34-3.23-.62-4.81-1a9.17,9.17,0,0,1-2.77-1.1A3.71,3.71,0,0,1,458,203c-.37-1.38.4-1.92,1.76-1.45,2.15.74,4.31,1.45,6.47,2.16a7.15,7.15,0,0,0,1,.19c.25-2.61.45-5.15.75-7.68.18-1.55.49-3.08.8-4.6a1.77,1.77,0,0,1,2.24-1.56,2,2,0,0,1,1.12,2.55C471.39,196.48,470.68,200.4,469.91,204.47Z" transform="translate(0.03 -0.01)"/><path d="M542.68,224.83l.76,1.32c.22-2.28.42-4.25.61-6.21.61-6.48,1.29-12.95,1.79-19.44.2-2.53,0-5.09-.05-7.65a6,6,0,0,1,.14-1.75,1.45,1.45,0,0,1,1.8-1c.81.15,1.44.59,1.41,1.51-.09,3.46-.08,6.94-.38,10.39-.84,9.7-1.81,19.38-2.74,29.07a3.57,3.57,0,0,1-.19.93,1.62,1.62,0,0,1-1.9,1.11,1.38,1.38,0,0,1-1.24-1.51C542.67,229.31,542.68,227,542.68,224.83Z" transform="translate(0.03 -0.01)"/><path d="M350.9,228.53c1.58-1,2-.81,2.08.67a4.2,4.2,0,0,1-.33,1.84,1.79,1.79,0,0,1-2,1.3,2.54,2.54,0,0,1-1.64-1.43,24.16,24.16,0,0,1-.87-5.65,86.26,86.26,0,0,1,1.69-17.62c.14-.7.29-1.5,1.28-1.44a2.07,2.07,0,0,1,1.92,1.7,4.84,4.84,0,0,1,0,1.78c-.69,5.59-1.4,11.16-2.08,16.75A18,18,0,0,0,350.9,228.53Z" transform="translate(0.03 -0.01)"/><path d="M355.54,193.52c0,1.23-.57,1.85-1.69,1.85-1.78,0-2.82-.94-2.82-2.55a2.86,2.86,0,0,1,2.39-2.86C354.62,189.93,355.56,191.53,355.54,193.52Z" transform="translate(0.03 -0.01)"/></svg>